<?xml version="1.0" standalone="no"?> <!DOCTYPE svg PUBLIC "-//W3C//DTD SVG 1.0//EN" "http://www.w3.org/TR/2001/REC-SVG-20010904/DTD/svg10.dtd" > <svg xmlns="http://www.w3.org/2000/svg" width="100%" height="100%">
<defs >
<font id="charissilcompact-r-regular" horiz-adv-x="1114" ><font-face
    font-family="Charis SIL Compact"
    units-per-em="2048"
    panose-1="2 0 5 0 6 0 0 2 0 4"
    ascent="1950"
    descent="-500"
    alphabetic="0" />
<missing-glyph horiz-adv-x="2048" />
<glyph unicode=" " glyph-name="space" horiz-adv-x="600" />
<glyph unicode="!" glyph-name="exclam" horiz-adv-x="692" d="M473 102Q473 77 463 54T436 14T395 -14T346 -25Q320 -25 297 -15T257 13T231 54T221 102Q221 128 230 151T257 191T297 217T346 227Q372 227 395 218T435 191T463 151T473 102ZM471 1274Q471 1268
468 1226T459 1119T448 974T434 810Q417 615 397 371H297Q276 615 259 810Q252 893 245 973T233 1118T225 1225T221 1274Q221 1336 251 1371T346 1407Q411 1407 441 1372T471 1274Z" />
<glyph unicode="&quot;" glyph-name="quotedbl" horiz-adv-x="682" d="M193 862H160L88 1362Q88 1410 111 1436T176 1462Q219 1462 240 1436T262 1362L193 862ZM522 862H489L420 1362Q420 1410 442 1436T506 1462Q549 1462 571 1436T594 1362L522 862Z" />
<glyph unicode="#" glyph-name="numbersign" horiz-adv-x="1522" d="M664 862L563 569H860L961 862H664ZM1073 862L977 569H1307V467H940L768 -47L666 -14L825 467H528L354 -47L254 -12L418 467H127V569H451L551 862H219V967H586L750 1450L854 1417L696 967H995L1157
1450L1266 1417L1110 967H1397V862H1073Z" />
<glyph unicode="$" glyph-name="dollar" horiz-adv-x="1153" d="M848 350Q848 406 830 446T781 514T710 561T627 594V109Q670 116 710 134T781 181T830 253T848 350ZM535 1266Q494 1257 459 1239T398 1191T357 1123T342 1032Q342 982 360 946T407 885T469 842T535
813V1266ZM1034 389Q1034 326 1013 273T959 178T882 103T793 49T704 14T627 0V-211H532V0Q494 2 444 5T340 13T228 28T119 53V401H221L258 172Q272 155 300 142T366 119T447 105T532 100V618Q465 633 398 660T276 732T187 839T152 991Q152 1053 169 1103T215 1193T282
1263T363 1314T450 1348T535 1368V1522H629V1374Q695 1374 757 1367T869 1350Q926 1339 977 1327V1004H870L840 1221Q792 1274 629 1274V786Q673 773 720 758T813 722T898 673T968 605T1016 512T1034 389Z" />
<glyph unicode="%" glyph-name="percent" horiz-adv-x="1761" d="M537 977Q537 1058 528 1123T501 1233T453 1304T381 1329Q339 1329 309 1304T258 1234T229 1123T219 977Q219 896 228 831T258 721T308 650T381 625Q423 625 452 650T500 720T528 831T537 977ZM1538
397Q1538 478 1529 543T1502 654T1454 725T1382 750Q1341 750 1311 725T1260 654T1231 543T1221 397Q1221 316 1230 251T1260 140T1310 68T1382 43Q1424 43 1453 68T1501 139T1529 251T1538 397ZM694 977Q694 885 675 807T617 671T519 580T381 547Q302 547 243
580T145 670T86 806T66 977Q66 1068 85 1147T144 1283T243 1374T381 1407Q460 1407 519 1374T617 1284T675 1147T694 977ZM512 0H383L1253 1374H1380L512 0ZM1696 397Q1696 306 1677 228T1618 91T1520 0T1382 -33Q1303 -33 1244 0T1146 91T1087 227T1067 397Q1067
488 1086 567T1145 703T1244 794T1382 827Q1461 827 1520 794T1618 704T1676 567T1696 397Z" />
<glyph unicode="&amp;" glyph-name="ampersand" horiz-adv-x="1432" d="M434 682Q403 661 377 636T330 580T299 512T287 428Q287 359 310 301T373 200T467 133T584 109Q631 109 669 118T740 144T801 180T856 223L434 682ZM743 1079Q743 1123 732 1163T696 1233T636
1282T551 1300Q509 1300 475 1285T417 1244T380 1183T367 1108Q367 1057 386 1013T434 931T496 862T557 803Q602 825 636 851T694 911T730 986T743 1079ZM1014 0V49L922 152Q882 120 839 89T746 32T637 -9T506 -25Q418 -25 341 5T205 90T114 218T80 381Q80 448
100 503T156 603T243 682T354 741Q337 758 308 787T251 857T203 947T182 1055Q182 1132 211 1195T293 1305T417 1376T571 1401Q649 1401 715 1378T829 1313T904 1216T932 1092Q932 1017 906 961T838 863T741 790T631 733L975 362Q991 383 1009 412T1044 473T1073
538T1090 602Q1091 611 1080 625T1055 641L944 657V743H1364V657L1217 635Q1202 583 1182 534T1138 441T1089 358T1042 289L1208 98L1391 88V0H1014Z" />
<glyph unicode="&apos;" glyph-name="quotesingle" horiz-adv-x="350" d="M193 862H160L88 1362Q88 1410 110 1436T174 1462Q217 1462 239 1436T262 1362L193 862Z" />
<glyph unicode="(" glyph-name="parenleft" horiz-adv-x="770" d="M702 -291Q595 -279 511 -241T362 -141T251 -1T177 173T135 372T121 590Q121 757 151 908T251 1178T430 1373T702 1468V1378Q594 1360 520 1299T399 1137T332 898T311 590Q311 419 331 281T398
42T519 -121T702 -201V-291Z" />
<glyph unicode=")" glyph-name="parenright" horiz-adv-x="770" d="M651 590Q651 478 638 373T596 173T521 0T411 -141T262 -240T70 -291V-201Q178 -183 252 -122T372 41T438 281T459 590Q459 760 439 898T373 1136T253 1298T70 1378V1468Q230 1450 341 1374T521
1179T620 909T651 590Z" />
<glyph unicode="*" glyph-name="asterisk" horiz-adv-x="1024" d="M406 743L264 690L268 842L475 1008L500 989L406 743ZM467 1036L201 1051L109 1167L254 1210L475 1065L467 1036ZM618 743L524 989L549 1008L756 842L760 690L618 743ZM526 1085H498L428 1341L512
1466L598 1341L526 1085ZM823 1051L559 1036L549 1065L770 1210L915 1167L823 1051Z" />
<glyph unicode="+" glyph-name="plus" horiz-adv-x="2048" d="M1087 551V0H961V551H410V678H961V1229H1087V678H1638V551H1087Z" />
<glyph unicode="," glyph-name="comma" horiz-adv-x="573" d="M422 20Q422 -57 393 -121T314 -234T200 -312T66 -348V-274Q120 -262 162 -242T233 -188T277 -105T291 14H162Q160 16 154 23T142 43T130 71T125 109Q125 136 134 161T161 206T201 238T252 250Q296
250 328 233T381 185T412 112T422 20Z" />
<glyph unicode="-" glyph-name="hyphen" horiz-adv-x="655" d="M90 416V569H565V416H90Z" />
<glyph unicode="." glyph-name="period" horiz-adv-x="573" d="M401 113Q401 84 390 59T360 16T316 -14T262 -25Q233 -25 209 -14T165 15T136 59T125 113Q125 141 135 166T165 209T208 239T262 250Q290 250 315 239T360 210T390 166T401 113Z" />
<glyph unicode="/" glyph-name="slash" horiz-adv-x="1004" d="M131 -190H0L872 1374H1004L131 -190Z" />
<glyph unicode="0" glyph-name="zero" horiz-adv-x="1153" d="M854 686Q854 763 849 838T830 983T796 1111T744 1213T671 1280T575 1305Q521 1305 479 1281T407 1213T355 1111T321 983T303 839T297 686Q297 609 302 534T321 390T355 263T406 162T479 95T575 70Q629
70 671 94T744 161T796 262T830 389T848 533T854 686ZM1071 686Q1071 539 1041 409T949 180T794 25T575 -33Q450 -33 358 24T204 180T112 408T82 686Q82 784 95 875T136 1047T203 1193T299 1306T423 1380T575 1407Q658 1407 727 1381T852 1307T948 1193T1016 1047T1057
876T1071 686Z" />
<glyph unicode="1" glyph-name="one" horiz-adv-x="1153" d="M221 0V92L428 100Q447 100 460 113T473 145V1233L156 1178V1270L598 1407H676V145Q676 127 689 114T721 100L913 92V0H221Z" />
<glyph unicode="2" glyph-name="two" horiz-adv-x="1153" d="M96 0V137Q252 266 383 374T609 583T758 781T811 987Q811 1061 788 1118T725 1215T632 1275T518 1296Q482 1296 453 1288T401 1270T366 1252T348 1243V1016Q337 1006 322 998Q309 991 290 986T248 981Q224
981 202 988T163 1011T135 1048T125 1102Q125 1166 161 1222T260 1319T403 1383T575 1407Q675 1407 759 1378T903 1297T998 1171T1032 1008Q1032 936 1005 866T928 728T811 591T664 454T495 315T313 172H920L956 348H1057V0H96Z" />
<glyph unicode="3" glyph-name="three" horiz-adv-x="1153" d="M1057 391Q1057 298 1015 220T899 86T729 -1T520 -33Q416 -33 337 -10T205 50T124 128T96 209Q96 230 103 249T126 284T163 309T217 319Q229 319 251 317T287 305L348 123Q388 100 432 85T526 70Q598
70 657 97T758 169T823 271T846 391Q846 466 817 515T743 594T644 636T539 649Q512 649 489 648T449 645Q430 643 414 641V768Q417 768 434 767T467 766Q531 766 590 781T695 828T768 909T795 1026Q795 1090 773 1140T713 1224T627 1276T526 1294Q485 1294 451
1285T393 1265Q364 1253 342 1237V1032Q336 1029 312 1018T250 1006Q232 1006 211 1011T172 1030T143 1065T131 1120Q131 1178 167 1230T265 1322T409 1384T584 1407Q673 1407 749 1382T882 1311T971 1200T1004 1053Q1004 937 923 852T688 723Q752 720 818 700T937
639T1023 537T1057 391Z" />
<glyph unicode="4" glyph-name="four" horiz-adv-x="1153" d="M705 1145L244 547H705V1145ZM897 408V-33H705V408H82V549L754 1407H897V547H1071V408H897Z" />
<glyph unicode="5" glyph-name="five" horiz-adv-x="1153" d="M1059 444Q1059 340 1022 253T911 102T730 3T481 -33Q401 -33 331 -10T207 48T123 126T92 209Q92 265 128 294T221 324Q238 324 254 321T276 315L354 127Q366 115 386 105T428 86T472 73T512 68Q593
68 656 98T762 177T827 283T850 395Q850 481 823 544T749 650T638 712T500 733Q449 733 393 722T287 698Q230 683 174 664V1374H965V1200H319V811Q321 811 345 819T408 837T496 855T596 864Q703 864 788 836T934 753T1026 621T1059 444Z" />
<glyph unicode="6" glyph-name="six" horiz-adv-x="1153" d="M862 442Q862 517 843 576T786 677T695 740T573 762Q540 762 504 755T432 734T362 701T297 659Q294 627 294 599T293 547Q293 442 309 355T359 206T446 109T573 74Q647 74 701 103T791 181T844 298T862
442ZM1071 469Q1071 357 1032 265T926 106T768 4T573 -33Q469 -33 380 1T224 109T120 301T82 588Q82 771 137 922T296 1181T553 1348T901 1407V1280L831 1282Q733 1285 645 1251T486 1149T367 985T303 766Q388 839 473 867T645 895Q742 895 820 863T954 773T1040
638T1071 469Z" />
<glyph unicode="7" glyph-name="seven" horiz-adv-x="1153" d="M395 35V-33H178L854 1200H223L190 1014H86V1374H1067V1260L395 35Z" />
<glyph unicode="8" glyph-name="eight" horiz-adv-x="1153" d="M862 340Q862 404 835 448T756 528T629 595T457 666Q418 645 385 619T326 560T287 483T272 385Q272 319 291 263T349 166T444 101T575 78Q641 78 694 99T785 157T842 241T862 340ZM825 1036Q825 1099
805 1148T751 1232T672 1285T575 1303Q523 1303 480 1284T405 1232T357 1158T340 1069Q340 1015 363 972T429 891T534 823T676 762Q707 785 734 813T782 875T813 949T825 1036ZM1069 373Q1069 285 1032 211T928 82T772 -2T575 -33Q462 -33 371 -3T216 81T117 208T82
369Q82 439 106 493T171 588T265 659T375 711Q333 728 291 756T214 823T159 911T137 1022Q137 1110 168 1181T257 1302T396 1380T575 1407Q669 1407 749 1380T888 1306T980 1194T1014 1055Q1014 990 990 937T928 843T847 772T764 723Q813 705 867 678T966 608T1040
509T1069 373Z" />
<glyph unicode="9" glyph-name="nine" horiz-adv-x="1153" d="M858 827Q858 932 842 1019T792 1168T704 1265T578 1300Q504 1300 450 1272T360 1193T307 1076T289 932Q289 857 308 798T365 697T456 634T578 612Q611 612 647 619T719 640T789 673T854 715Q857 747
857 775T858 827ZM1071 786Q1071 603 1016 452T856 193T598 26T250 -33V94L319 92Q417 89 506 123T666 225T785 389T850 608Q808 571 765 547T680 507T594 486T508 479Q411 479 333 511T199 599T113 733T82 903Q82 1015 120 1108T226 1267T383 1370T578 1407Q681
1407 771 1373T928 1265T1033 1073T1071 786Z" />
<glyph unicode=":" glyph-name="colon" horiz-adv-x="573" d="M401 113Q401 84 390 59T360 16T316 -14T262 -25Q233 -25 209 -14T165 15T136 59T125 113Q125 141 135 166T165 209T208 239T262 250Q290 250 315 239T360 210T390 166T401 113ZM401 874Q401 846 390
821T360 778T316 748T262 737Q233 737 209 748T165 777T136 821T125 874Q125 902 135 927T165 971T208 1001T262 1012Q290 1012 315 1001T360 972T390 928T401 874Z" />
<glyph unicode=";" glyph-name="semicolon" horiz-adv-x="573" d="M422 20Q422 -57 393 -121T314 -234T200 -312T66 -348V-274Q120 -262 162 -242T233 -188T277 -105T291 14H162Q160 16 154 23T142 43T130 71T125 109Q125 136 134 161T161 206T201 238T252 250Q296
250 328 233T381 185T412 112T422 20ZM399 874Q399 846 389 821T359 778T315 748T262 737Q233 737 209 748T165 777T136 821T125 874Q125 902 136 927T166 971T210 1001T264 1012Q292 1012 317 1001T360 972T388 928T399 874Z" />
<glyph unicode="&lt;" glyph-name="less" horiz-adv-x="2048" d="M410 551V678L1638 1149V1022L541 614L1638 207V80L410 551Z" />
<glyph unicode="=" glyph-name="equal" horiz-adv-x="2048" d="M410 365V492H1638V365H410ZM410 737V864H1638V737H410Z" />
<glyph unicode="&gt;" glyph-name="greater" horiz-adv-x="2048" d="M410 80V207L1507 614L410 1022V1149L1638 678V551L410 80Z" />
<glyph unicode="?" glyph-name="question" horiz-adv-x="995" d="M854 1040Q854 975 836 922T788 825T719 747T636 685T549 635T465 596V369H350V666Q398 682 450 711T546 785T618 888T647 1024Q647 1167 571 1237T354 1307L270 1098Q261 1097 254 1097Q248 1096
243 1096H236Q208 1096 184 1102T141 1121T113 1156T102 1206Q102 1242 121 1278T181 1342T283 1389T428 1407Q519 1407 597 1381T732 1308T821 1192T854 1040ZM537 100Q537 74 527 52T500 12T459 -15T410 -25Q384 -25 361 -15T321 12T295 53T285 102Q285 128 294
151T321 191T361 217T410 227Q437 227 460 217T500 190T527 149T537 100Z" />
<glyph unicode="@" glyph-name="at" horiz-adv-x="1917" d="M1196 805Q1199 818 1191 838T1167 876T1127 908T1075 922Q999 922 938 887T834 790T768 646T745 469Q745 358 786 303T905 248Q939 248 970 261T1027 295T1076 338T1114 381L1196 805ZM1769 764Q1769
660 1747 572T1686 411T1597 284T1491 191T1378 134T1270 115Q1185 115 1148 157T1110 285Q1030 204 958 161T813 117Q757 117 710 140T629 207T576 312T557 451Q557 568 600 670T715 847T878 965T1067 1008Q1089 1008 1115 1004T1167 993T1219 975T1268 952L1305
999H1419Q1417 993 1410 964T1393 891T1371 793T1346 683Q1316 553 1280 391Q1271 356 1271 327T1280 276T1308 243T1356 231Q1401 231 1456 268T1558 374T1637 541T1669 762Q1669 906 1620 1012T1491 1187T1307 1291T1096 1325Q979 1325 875 1298T682 1220T522
1097T401 936T324 744T297 526Q297 370 345 235T486 1T711 -154T1014 -211Q1104 -211 1182 -197T1327 -161T1450 -112T1554 -59L1583 -133Q1514 -170 1442 -202T1294 -259T1136 -298T965 -313Q855 -313 752 -288T559 -216T393 -99T264 60T180 257T150 489Q150 641
186 768T287 999T438 1180T628 1310T842 1388T1069 1415Q1221 1415 1349 1373T1571 1248T1716 1044T1769 764Z" />
<glyph unicode="A" glyph-name="A" horiz-adv-x="1380" d="M643 1143L444 606H844L643 1143ZM883 0V88L1001 98Q1011 98 1018 111T1022 133L881 508H408L272 139Q270 133 272 126T279 113T290 102T301 98L422 88V0H10V88L129 113L606 1407H760L1235 143Q1242 122
1248 115T1278 104L1370 88V0H883Z" />
<glyph unicode="B" glyph-name="B" horiz-adv-x="1239" d="M1159 406Q1159 323 1136 261T1072 153T980 79T870 32T753 7T639 0H66V88L174 96Q196 98 206 112T217 141V1233Q217 1248 207 1262T174 1278L66 1286V1374H614Q736 1374 823 1352T967 1286T1049 1182T1075
1044Q1075 967 1046 913T973 822T877 763T780 729Q849 729 916 713T1038 658T1125 558T1159 406ZM936 389Q936 529 853 594T606 659Q581 659 551 657T493 653T446 649T422 647V106Q447 104 471 103Q491 101 512 101T549 100Q657 100 730 118T850 172T916 262T936
389ZM854 1030Q854 1151 776 1215T539 1280Q523 1280 505 1279T470 1277T440 1275T422 1274V756Q436 755 450 755Q462 754 474 754H496Q596 754 664 772T775 826T835 912T854 1030Z" />
<glyph unicode="C" glyph-name="C" horiz-adv-x="1284" d="M1204 47Q1200 45 1165 33T1074 6T946 -21T795 -33Q680 -33 583 -6T406 71T266 188T164 336T101 506T80 690Q80 849 132 981T278 1207T504 1354T797 1407Q847 1407 893 1402T988 1386T1089 1361T1204
1327V1006H1081L1051 1192Q1049 1206 1037 1220T1016 1239Q1004 1244 985 1253T938 1270T878 1285T807 1292Q702 1292 612 1253T456 1138T353 950T315 690Q315 547 350 434T453 242T616 122T834 80Q870 80 899 85T951 96T985 108T999 115Q1015 121 1025 132T1038
156L1085 379H1204V47Z" />
<glyph unicode="D" glyph-name="D" horiz-adv-x="1425" d="M1114 686Q1114 847 1077 959T970 1142T802 1244T582 1276H426V98L592 100Q710 101 806 133T971 236T1076 417T1114 686ZM1346 690Q1346 600 1329 515T1276 352T1184 211T1048 99T867 26T635 0H66V88L174
96Q196 98 207 112T219 141V1233Q219 1248 208 1262T174 1278L66 1286V1374H594Q755 1374 893 1334T1131 1209T1289 996T1346 690Z" />
<glyph unicode="E" glyph-name="E" horiz-adv-x="1194" d="M66 0V88L172 96Q194 98 205 112T217 141V1233Q217 1248 206 1262T172 1278L66 1286V1374H1061V1069H938L907 1237Q905 1252 895 1264T870 1276H426V766H733Q747 766 758 778T770 801L791 942H895V485H791L770
627Q770 638 758 651T733 664H426V100H944Q957 100 968 114T981 139L1018 342H1128V0H66Z" />
<glyph unicode="F" glyph-name="F" horiz-adv-x="1108" d="M926 1049L897 1237Q894 1252 885 1263T862 1274H426V741H739Q753 741 763 754T776 778L795 922H897V461H795L776 604Q774 615 763 628T739 641H426V141Q426 126 436 112T469 96L606 88V0H68V88L176 96Q198
98 208 112T219 141V1233Q219 1248 209 1262T176 1278L51 1286V1374H1047V1049H926Z" />
<glyph unicode="G" glyph-name="G" horiz-adv-x="1423" d="M1268 565Q1246 563 1236 551T1225 522V49Q1163 26 1093 8Q1033 -8 956 -20T795 -33Q681 -33 584 -6T407 70T266 186T164 334T101 504T80 690Q80 851 131 983T278 1210T511 1355T821 1407Q879 1407 931
1401T1033 1384T1129 1362T1223 1337V1006H1100L1067 1190Q1064 1208 1052 1220T1026 1239Q1011 1245 990 1254T941 1271T882 1286T813 1292Q702 1292 610 1253T452 1139T350 954T313 700Q313 553 350 438T455 244T621 124T838 82Q872 82 903 87T958 97T998 108T1018
113V522Q1018 538 1008 550T975 565L838 575V664H1372V575L1268 565Z" />
<glyph unicode="H" glyph-name="H" horiz-adv-x="1522" d="M938 0V88L1055 96Q1076 98 1087 112T1098 141V670H424V141Q424 126 434 112T467 96L584 88V0H66V88L172 96Q194 98 205 112T217 141V1233Q217 1248 206 1261T172 1276L66 1284V1374H584V1284L467 1276Q445
1274 435 1261T424 1233V772H1098V1233Q1098 1248 1087 1261T1055 1276L938 1284V1374H1456V1284L1350 1276Q1328 1274 1317 1261T1305 1233V141Q1305 126 1316 112T1350 96L1456 88V0H938Z" />
<glyph unicode="I" glyph-name="I" horiz-adv-x="676" d="M68 0V88L190 96Q212 98 222 112T233 141V1233Q233 1248 223 1261T190 1276L68 1284V1374H608V1284L483 1276Q462 1274 451 1261T440 1233V141Q440 126 451 112T483 96L608 88V0H68Z" />
<glyph unicode="J" glyph-name="J" horiz-adv-x="993" d="M821 1278Q800 1276 789 1262T778 1233V518Q778 390 754 288T677 115T538 6T328 -33Q278 -33 230 -25T144 -6T81 14T51 25V375H174L219 125Q222 110 231 100T254 83T282 75T313 72Q383 72 432 99T512 180T557
315T571 504V1233Q571 1248 561 1262T528 1278L399 1286V1374H940V1286L821 1278Z" />
<glyph unicode="K" glyph-name="K" horiz-adv-x="1307" d="M948 0V63L567 610H424V141Q424 126 435 112T469 96L586 88V0H66V88L174 96Q196 98 206 112T217 141V1233Q217 1248 207 1262T174 1278L66 1286V1374H586V1286L469 1278Q447 1276 436 1262T424 1233V696H498L944
1241Q951 1250 945 1262T928 1276L823 1286V1374H1257V1286Q1221 1283 1192 1279Q1167 1276 1145 1274T1118 1270L700 770L1159 98L1307 88V0H948Z" />
<glyph unicode="L" glyph-name="L" horiz-adv-x="1087" d="M55 0V88L174 96Q196 98 206 112T217 141V1233Q217 1248 207 1262T174 1278L55 1286V1374H578V1286L469 1278Q447 1276 436 1262T424 1233V100H854Q868 100 882 110T899 135L932 381H1051V0H55Z" />
<glyph unicode="M" glyph-name="M" horiz-adv-x="1794" d="M1214 0V88L1323 96Q1345 98 1356 112T1368 141V1270L897 0H795L340 1251V141Q340 126 351 112T385 96L502 88V0H59V88L176 96Q198 98 208 112T219 141V1233Q219 1248 209 1262T176 1278L59 1286V1374H518V1319L889
313L1260 1313V1374H1731V1286L1620 1278Q1598 1276 1587 1262T1575 1233V141Q1575 126 1586 112T1620 96L1731 88V0H1214Z" />
<glyph unicode="N" glyph-name="N" horiz-adv-x="1477" d="M1303 1278Q1281 1276 1271 1262T1260 1233V0H1100L338 1147V141Q338 126 348 112T381 96L498 88V0H55V88L172 96Q194 98 205 112T217 141V1233Q217 1248 206 1262T172 1278L51 1286V1374H457V1323L1139
293V1233Q1139 1248 1128 1262T1096 1278L979 1286V1374H1417V1286L1303 1278Z" />
<glyph unicode="O" glyph-name="O" horiz-adv-x="1497" d="M1180 684Q1180 809 1153 919T1072 1112T938 1242T750 1290Q639 1290 557 1242T421 1112T341 920T315 688Q315 565 341 455T421 261T555 129T745 80Q856 80 937 129T1073 260T1153 452T1180 684ZM1417
686Q1417 537 1369 406T1234 178T1023 24T750 -33Q599 -33 476 21T264 173T128 401T80 688Q80 838 127 969T261 1197T471 1351T748 1407Q900 1407 1023 1350T1234 1195T1369 966T1417 686Z" />
<glyph unicode="P" glyph-name="P" horiz-adv-x="1186" d="M893 958Q893 1033 873 1091T810 1190T697 1252T530 1274Q516 1274 498 1274T464 1273Q446 1272 426 1272V627Q428 627 441 626T471 622T507 618T541 616Q622 615 687 635T797 697T868 804T893 958ZM1106
961Q1106 848 1064 764T950 624T780 541T571 514Q551 514 528 515T483 517T446 520T426 522V141Q426 126 436 112T469 96L604 88V0H66V88L174 96Q196 98 207 112T219 141V1233Q219 1248 208 1262T174 1278L51 1286V1374H541Q686 1374 792 1352T968 1281T1072 1154T1106
961Z" />
<glyph unicode="Q" glyph-name="Q" horiz-adv-x="1513" d="M1192 686Q1192 807 1166 916T1087 1109T951 1242T756 1292Q644 1292 562 1244T425 1114T345 922T319 690Q319 570 346 460T427 265T564 130T756 80Q867 80 949 129T1085 262T1165 456T1192 686ZM1434
686Q1434 548 1396 428T1284 215T1106 61T868 -23Q870 -138 939 -204T1151 -270Q1188 -270 1221 -267T1280 -261T1323 -254T1348 -248V-336Q1337 -338 1309 -344T1239 -356T1148 -366T1044 -371Q936 -371 861 -347T739 -278T670 -170T649 -27Q526 -9 422 48T242
196T123 412T80 686Q80 786 101 878T163 1051T263 1196T397 1309T562 1381T754 1407Q910 1407 1035 1351T1249 1198T1386 969T1434 686Z" />
<glyph unicode="R" glyph-name="R" horiz-adv-x="1329" d="M879 1001Q879 1067 859 1117T796 1203T684 1256T518 1274H424V713Q426 713 438 713T465 712T497 712T526 711Q611 711 677 725T788 774T856 863T879 1001ZM1329 -6Q1322 -7 1309 -11T1278 -20T1239 -29T1194
-33Q1102 -33 1045 -6T953 67T897 171T860 289T823 408T765 511T669 584T516 612Q500 612 484 612T456 610T434 609T424 608V141Q424 126 434 112T467 96L575 88V0H66V88L172 96Q194 98 205 112T217 141V1233Q217 1248 206 1262T172 1278L66 1286V1374H600Q717
1374 810 1355T968 1293T1067 1181T1102 1010Q1102 929 1074 871T1000 773T892 708T766 668Q849 648 899 613T978 532T1021 437T1046 337T1071 242T1114 162T1194 107T1329 86V-6Z" />
<glyph unicode="S" glyph-name="S" horiz-adv-x="1067" d="M987 385Q987 307 957 232T860 98T691 3T444 -33Q360 -33 294 -21T179 5Q124 22 80 43V406H209L236 174Q238 162 248 148T270 129L287 120Q302 113 328 105T391 89T477 82Q542 82 597 98T693 146T755
222T778 324Q778 386 743 432T654 515T537 581T418 637Q355 667 298 699T197 773T128 871T102 1006Q102 1097 138 1171T237 1297T387 1378T575 1407Q633 1407 684 1400T780 1383T863 1360T936 1337V1018H819L788 1214Q786 1224 777 1234T758 1249Q756 1250 745
1258T713 1274T658 1289T578 1296Q516 1296 467 1278T384 1228T332 1151T313 1055Q313 1008 331 970T386 899T476 838T598 784Q691 749 763 711T885 626T961 521T987 385Z" />
<glyph unicode="T" glyph-name="T" horiz-adv-x="1227" d="M1073 1047L1044 1239Q1041 1255 1033 1264T1010 1274H717V141Q717 126 727 112T760 96L891 88V0H336V88L467 96Q489 98 499 112T510 141V1274H215Q201 1274 192 1265T180 1239L152 1047H33V1374H1194V1047H1073Z"
/>
<glyph unicode="U" glyph-name="U" horiz-adv-x="1458" d="M1284 1278Q1262 1276 1252 1262T1241 1233V455Q1241 329 1207 237T1107 85T942 -4T715 -33Q461 -33 338 90T215 455V1233Q215 1248 205 1262T172 1278L63 1286V1374H584V1286L467 1278Q445 1276 435
1262T424 1233V508Q424 418 438 344T490 216T595 134T770 104Q876 104 944 135T1051 220T1105 349T1120 508V1233Q1120 1248 1109 1262T1075 1278L958 1286V1374H1403V1286L1284 1278Z" />
<glyph unicode="V" glyph-name="V" horiz-adv-x="1364" d="M1225 1264L766 -33H610L141 1266L20 1286V1374H510V1286L389 1276Q378 1274 373 1261T371 1239L731 227L1077 1235Q1081 1247 1072 1260T1049 1276L936 1286V1374H1343V1286L1225 1264Z" />
<glyph unicode="W" glyph-name="W" horiz-adv-x="1907" d="M1761 1262L1448 -33H1298L956 1102L621 -33H473L139 1262L20 1286V1374H489V1286L367 1274Q353 1272 348 1260T346 1233L590 309L911 1374H1069L1399 276L1626 1233Q1629 1247 1621 1259T1597 1274L1468
1286V1374H1886V1286L1761 1262Z" />
<glyph unicode="X" glyph-name="X" horiz-adv-x="1298" d="M752 0V88L870 100Q886 102 895 115T895 143L623 571L307 137Q299 126 303 113T332 98L455 88V0H20V88L143 113L555 678L182 1262L47 1286V1374H561V1286L457 1276Q432 1274 428 1261T432 1235L682 850L958
1229Q969 1244 960 1257T936 1272L831 1286V1374H1260V1286L1128 1266L748 743L1151 113L1278 88V0H752Z" />
<glyph unicode="Y" glyph-name="Y" horiz-adv-x="1282" d="M1151 1266L739 584V141Q739 126 750 112T782 96L913 88V0H360V88L487 96Q509 98 520 112T532 141V553L139 1262L20 1286V1374H506V1286L403 1276Q379 1273 376 1260T379 1235L668 700L985 1229Q994 1244
985 1257T961 1272L846 1286V1374H1262V1286L1151 1266Z" />
<glyph unicode="Z" glyph-name="Z" horiz-adv-x="1178" d="M80 0V90L842 1272H309Q295 1272 287 1262T274 1237L244 1047H123V1374H1087V1280L324 104H907Q921 104 930 115T942 141L977 379H1098V0H80Z" />
<glyph unicode="[" glyph-name="bracketleft" horiz-adv-x="866" d="M279 -270V1450H776V1358H457V-176H776V-270H279Z" />
<glyph unicode="\" glyph-name="backslash" horiz-adv-x="1001" d="M870 -190L0 1374H131L1001 -190H870Z" />
<glyph unicode="]" glyph-name="bracketright" horiz-adv-x="866" d="M90 -270V-176H412V1358H90V1450H590V-270H90Z" />
<glyph unicode="^" glyph-name="asciicircum" horiz-adv-x="670" d="M547 1128L336 1331L123 1128H0L258 1475H412L670 1128H547Z" />
<glyph unicode="_" glyph-name="underscore" horiz-adv-x="686" d="M0 -305V-175H686V-305H0Z" />
<glyph unicode="`" glyph-name="grave" horiz-adv-x="717" d="M358 1128L47 1327Q25 1341 13 1361T0 1409Q0 1425 5 1441T21 1471T50 1492T94 1501Q116 1501 131 1498T158 1487T180 1470T201 1446L475 1128H358Z" />
<glyph unicode="a" glyph-name="a" horiz-adv-x="1042" d="M678 547Q540 512 459 478T337 410T284 340T272 266Q272 234 282 204T312 149T360 111T426 96Q467 96 511 111T593 144Q636 165 678 193V547ZM705 0L678 121Q624 80 567 48Q542 34 514 21T457 -2T397
-19T336 -25Q280 -25 232 -6T147 49T91 136T70 252Q70 290 77 324T108 390T172 451T281 510T446 567T678 625V713Q678 816 632 865T487 915Q433 915 395 905T342 889V711H193Q179 711 166 713T141 721T124 739T117 770Q117 833 155 878T254 954T391 998T543 1012Q638
1012 700 989T799 925T851 828T866 705V131Q866 112 878 100T909 86L1008 80V0H705Z" />
<glyph unicode="b" glyph-name="b" horiz-adv-x="1137" d="M1067 541Q1067 425 1033 327T928 155T745 41T479 0H184V1362H29V1430L293 1509H375V936Q393 944 422 957T488 982T569 1003T657 1012Q758 1012 834 974T963 871T1041 721T1067 541ZM858 500Q858 693
776 792T545 891Q528 891 505 888T459 880T413 869T375 858V98Q392 97 410 97Q425 96 442 96H475Q566 96 637 117T757 186T832 311T858 500Z" />
<glyph unicode="c" glyph-name="c" horiz-adv-x="954" d="M885 76Q850 58 812 40T730 7T639 -16T539 -25Q431 -25 345 13T197 120T103 283T70 487Q70 616 110 714T218 878T375 978T563 1012Q630 1012 688 999T789 959T856 895T881 807Q881 777 871 755T843 717T805
694T760 686Q726 686 701 697T657 721V899Q636 911 614 918T571 926Q503 926 449 895T357 809T299 679T279 514Q279 429 300 354T364 224T470 136T618 104Q690 104 754 126T885 193V76Z" />
<glyph unicode="d" glyph-name="d" horiz-adv-x="1155" d="M780 883Q767 887 747 892T703 902T654 910T606 913Q530 913 468 884T363 801T296 671T272 502Q272 418 292 348T350 225T443 144T569 115Q600 115 629 121T685 138T736 161T780 186V883ZM780 0V109Q745
82 708 58T631 15T550 -14T463 -25Q360 -25 286 19T163 134T93 292T70 467Q70 571 102 669T199 844T362 966T592 1012Q616 1012 644 1009T698 1003T746 995T780 987V1362H625V1430L889 1509H971V131Q971 112 983 100T1014 86L1102 80V0H780Z" />
<glyph unicode="e" glyph-name="e" horiz-adv-x="1004" d="M934 102Q891 75 845 52T749 12T648 -15T545 -25Q452 -25 366 6T215 101T110 259T70 483Q70 603 106 700T206 867T358 974T551 1012Q646 1012 718 981T838 894T910 761T934 592V565Q934 549 932 535H268Q268
457 284 379T340 239T445 139T610 100Q654 100 697 111T781 141T861 181T934 227V102ZM729 672Q729 723 717 766T681 842T619 892T530 911Q479 911 435 892T358 835T304 746T279 627H729V672Z" />
<glyph unicode="f" glyph-name="f" horiz-adv-x="668" d="M797 1386Q797 1355 785 1335T756 1302T724 1283T702 1276Q700 1278 686 1288T651 1313T607 1344T563 1374T529 1398T514 1409Q492 1397 471 1375T432 1316T404 1227T393 1102V971H647V866H393V131Q393
112 405 100T436 86L557 80V0H59V80L160 86Q178 88 190 100T203 131V866H72V938L203 975Q203 1026 206 1066T218 1142T240 1211T272 1282Q302 1340 341 1382T426 1453T521 1495T621 1509Q664 1509 697 1499T752 1472T786 1433T797 1386Z" />
<glyph unicode="g" glyph-name="g" horiz-adv-x="1075" d="M811 -137Q811 -95 790 -66T735 -17T657 13T569 32T483 44T410 55Q365 39 335 17T287 -32T262 -85T254 -137Q254 -174 270 -216T319 -293T402 -351T522 -375Q595 -375 649 -352T740 -293T793 -216T811
-137ZM696 678Q696 726 684 771T647 851T588 907T506 928Q463 928 427 911T366 862T326 782T311 676Q311 625 323 580T360 500T421 446T506 426Q552 426 587 446T647 500T683 580T696 678ZM836 850Q859 813 875 770T891 666Q891 585 854 522T756 417T615 356T449
342Q437 322 433 299T428 256T429 222T432 205Q478 200 537 194T657 177T778 146T884 97T958 23T987 -82Q987 -155 946 -224T832 -348T663 -436T455 -469Q363 -469 292 -447T171 -386T96 -294T70 -178Q70 -133 83 -93T123 -20T190 36T287 70Q281 86 277 96T271
116T267 136T266 164Q266 204 290 252T369 356Q318 368 272 394T191 459T136 550T115 664Q115 745 145 809T229 919T358 988T526 1012Q562 1012 596 1006T661 991T718 970T764 950H1040V850H836Z" />
<glyph unicode="h" glyph-name="h" horiz-adv-x="1176" d="M672 0V80L756 86Q774 88 787 100T801 131V659Q801 703 792 740T759 804T696 846T598 862Q571 862 541 858T482 845T425 826T375 803V131Q375 112 386 100T416 86L504 80V0H43V80L141 86Q160 88 172 100T184
131V1362H31V1430L293 1509H375V885Q403 902 444 924T531 965T625 998T713 1012Q772 1012 822 993T910 936T969 840T991 702V131Q991 112 1004 100T1036 86L1128 80V0H672Z" />
<glyph unicode="i" glyph-name="i" horiz-adv-x="621" d="M70 0V80L170 86Q189 88 201 100T213 131V862H72V934L322 1012H403V131Q403 112 415 100T446 86L551 80V0H70ZM446 1325Q446 1299 437 1276T410 1235T371 1208T322 1198Q296 1198 273 1208T232 1235T205
1275T195 1325Q195 1351 205 1374T232 1414T272 1440T322 1450Q348 1450 370 1441T410 1414T436 1374T446 1325Z" />
<glyph unicode="j" glyph-name="j" horiz-adv-x="598" d="M414 131Q414 85 411 31T400 -79T376 -186T334 -279Q271 -376 181 -422T-6 -469Q-38 -469 -66 -463T-115 -442T-149 -407T-162 -356Q-162 -330 -154 -311T-134 -277T-105 -253T-74 -238L125 -375Q153 -359
172 -328T202 -253T218 -156T223 -43V866H78V934L330 1012H414V131ZM436 1325Q436 1299 427 1276T400 1235T360 1208T311 1198Q285 1198 262 1208T222 1235T194 1275T184 1325Q184 1351 194 1374T221 1414T262 1440T311 1450Q337 1450 360 1441T400 1414T426 1374T436
1325Z" />
<glyph unicode="k" glyph-name="k" horiz-adv-x="1094" d="M745 0V80L489 465H375V131Q375 112 387 100T418 86L506 80V0H41V80L141 86Q160 88 172 100T184 131V1362H29V1430L291 1509H375V524H416L717 864Q725 874 720 885T700 899L616 907V987H1014V907L883
893L612 604L965 92L1073 80V0H745Z" />
<glyph unicode="l" glyph-name="l" horiz-adv-x="608" d="M55 0V80L164 86Q178 86 193 100T209 129V1362H53V1430L315 1509H399V129Q399 115 413 101T442 86L553 80V0H55Z" />
<glyph unicode="m" glyph-name="m" horiz-adv-x="1741" d="M1237 0V80L1323 86Q1342 88 1354 100T1366 131V653Q1366 701 1357 739T1327 805T1270 847T1184 862Q1158 862 1130 858T1073 846T1017 828T965 805V131Q965 112 977 100T1008 86L1094 80V0H645V80L731
86Q750 88 762 100T774 131V666Q774 709 765 745T734 807T678 847T594 862Q565 862 534 857T473 843T419 824T375 803V131Q375 112 387 100T418 86L504 80V0H41V80L141 86Q160 88 172 100T184 131V842H43V909L291 987H375V885Q409 906 450 928T536 969T624 1000T709
1012Q753 1012 789 1000T852 967T900 921T934 870Q965 889 1009 914T1102 960T1200 997T1290 1012Q1371 1012 1422 983T1502 908T1543 806T1554 698V131Q1554 112 1566 100T1597 86L1696 80V0H1237Z" />
<glyph unicode="n" glyph-name="n" horiz-adv-x="1161" d="M668 0V80L754 86Q772 88 784 100T797 131V664Q797 761 752 811T600 862Q541 862 484 846T375 803V131Q375 112 387 100T418 86L504 80V0H41V80L141 86Q160 88 172 100T184 131V842H41V909L291 987H375V885Q418
909 462 932T551 973T636 1001T713 1012Q847 1012 917 929T987 696V131Q987 112 999 100T1030 86L1120 80V0H668Z" />
<glyph unicode="o" glyph-name="o" d="M831 494Q831 578 815 655T764 791T679 885T559 920Q488 920 436 885T351 791T301 655T285 494Q285 411 301 334T352 198T437 104T557 68Q627 68 679 103T764 197T814 333T831 494ZM1044 492Q1044 383 1010 289T912 125T758
15T555 -25Q443 -25 353 14T200 123T104 286T70 492Q70 601 104 696T202 861T356 972T561 1012Q675 1012 765 971T917 860T1011 695T1044 492Z" />
<glyph unicode="p" glyph-name="p" horiz-adv-x="1145" d="M870 479Q870 558 852 628T797 752T708 837T584 868Q545 868 508 858T441 837Q407 824 375 807V102Q399 93 426 86Q449 80 479 75T541 70Q625 70 687 104T789 194T850 325T870 479ZM1075 508Q1075 387
1040 289T938 121T775 13T557 -25Q529 -25 497 -23T438 -16Q406 -12 375 -6V-311Q375 -330 388 -341T420 -354L541 -367V-446H43V-367L141 -354Q160 -352 172 -341T184 -311V842H43V909L295 987H375V885Q419 920 469 948Q512 972 568 992T684 1012Q763 1012 834
976T958 874T1043 715T1075 508Z" />
<glyph unicode="q" glyph-name="q" horiz-adv-x="1124" d="M762 895Q734 901 699 909T621 918Q537 918 473 888T365 804T299 673T276 502Q276 423 293 350T348 220T444 130T586 96Q605 96 628 98T676 105T722 114T762 125V895ZM598 -446V-369L719 -358Q737 -356
749 -345T762 -315V55Q733 41 698 27T625 2T548 -17T475 -25Q380 -25 305 14T178 120T98 277T70 469Q70 594 110 694T226 865T412 974T662 1012Q690 1012 727 1010T803 1003T881 993T952 979V-315Q952 -334 964 -344T995 -358L1094 -369V-446H598Z" />
<glyph unicode="r" glyph-name="r" horiz-adv-x="801" d="M700 778Q680 801 654 817T590 834Q540 834 489 801T385 707V131Q385 112 397 100T428 86L563 80V0H51V78L152 86Q170 88 182 100T195 131V842H47V909L301 987H385V805Q407 829 438 864T506 933T580 989T655
1012Q671 1012 689 1009T724 1002T755 992T780 981V778H700Z" />
<glyph unicode="s" glyph-name="s" horiz-adv-x="815" d="M745 297Q745 222 718 162T641 61T518 -3T354 -25Q307 -25 263 -20T181 -6T114 12T70 27V299H174L199 125Q230 105 275 87T381 68Q425 68 459 81T516 117T552 167T565 227Q565 270 548 300T499 355T421
403T315 455Q259 482 216 508T144 565T99 632T84 715Q84 783 108 838T180 931T295 991T453 1012Q498 1012 539 1007T614 995T674 980T715 965V723H608L592 866Q570 883 527 898T436 913Q351 913 311 875T270 776Q270 741 281 715T319 666T389 619T498 565Q552 541
597 515T675 457T726 386T745 297Z" />
<glyph unicode="t" glyph-name="t" horiz-adv-x="696" d="M682 43Q644 24 599 9Q561 -4 511 -14T406 -25Q290 -25 238 29T186 205V885H55V952L195 1018L287 1235H377V987H666V885H377V313Q377 252 387 210T418 141T469 102T541 90Q571 90 596 95T641 107Q663 115
682 125V43Z" />
<glyph unicode="u" glyph-name="u" horiz-adv-x="1165" d="M797 0V117Q771 97 734 72T653 26T562 -10T469 -25Q403 -25 351 -6T262 54T206 157T186 307V862H43V932L295 1012H377V346Q377 292 387 249T421 176T483 131T575 115Q606 115 638 121T699 136T753 156T797
176V862H653V932L903 1012H987V131Q987 112 1000 100T1032 86L1122 80V0H797Z" />
<glyph unicode="v" glyph-name="v" horiz-adv-x="1083" d="M954 895L596 0H463L133 895L20 907V987H473V907L375 901Q358 899 348 886T344 856L573 215L825 856Q832 872 823 885T797 901L705 907V987H1063V907L954 895Z" />
<glyph unicode="w" glyph-name="w" horiz-adv-x="1604" d="M1479 895L1198 0H1053L811 766L541 0H395L133 895L20 907V987H469V907L373 901Q356 899 347 886T342 856L512 219L776 987H922L1159 219L1348 856Q1353 872 1345 885T1319 901L1225 907V987H1583V907L1479 895Z" />
<glyph unicode="x" glyph-name="x" horiz-adv-x="1044" d="M584 0V80L653 88Q667 90 672 102T672 125L496 387L295 125Q287 116 290 103T307 88L410 80V0H20V80L137 96L430 477L152 889L31 907V987H481V907L410 897Q396 895 390 883T389 860L551 631L729 860Q737
869 733 882T715 897L627 907V987H995V907L885 889L610 539L913 96L1024 80V0H584Z" />
<glyph unicode="y" glyph-name="y" horiz-adv-x="1085" d="M958 895L565 -63Q555 -88 537 -130T495 -219T441 -313T379 -391Q342 -428 298 -448T201 -469Q165 -469 137 -460T90 -434T61 -397T51 -352Q51 -317 66 -288T117 -229L309 -317Q334 -292 360 -252T409
-166T451 -77T481 2L133 895L20 907V987H473V907L375 901Q358 899 348 886T344 856L582 252L825 856Q832 872 823 885T797 901L700 907V987H1065V907L958 895Z" />
<glyph unicode="z" glyph-name="z" horiz-adv-x="946" d="M70 0V109L612 891H256Q241 891 230 877T215 848L195 696H90V987H848V903L287 98H700Q707 98 714 103T728 115T739 130T745 147L766 309H877V0H70Z" />
<glyph unicode="{" glyph-name="braceleft" horiz-adv-x="999" d="M858 -252Q804 -252 751 -248T651 -234T566 -206T502 -162Q467 -126 450 -84T426 6T418 102V278Q418 319 413 359T396 435T360 494Q342 512 319 522T268 539T204 547T123 549V641Q168 641 203
643T267 651T319 667T360 696Q384 719 396 755T413 831T418 912V1087Q418 1137 425 1183T450 1273T502 1352Q527 1379 565 1396T651 1423T751 1438T858 1442V1358Q845 1358 818 1356T760 1348T698 1330T649 1296Q628 1273 618 1239T603 1165T599 1080T600 993Q600
958 599 920T591 844T574 773T541 713Q500 660 444 635T324 596Q387 582 443 556T541 477Q562 451 573 418T591 347T598 271T600 197Q600 154 600 110T603 26T617 -49T649 -106Q668 -127 698 -139T759 -158T818 -166T858 -168V-252Z" />
<glyph unicode="|" glyph-name="bar" horiz-adv-x="724" d="M300 -528V1630H424V-528H300Z" />
<glyph unicode="}" glyph-name="braceright" horiz-adv-x="999" d="M877 549Q788 549 732 539T639 494Q615 471 603 435T587 359T582 278V102Q582 53 575 6T550 -83T498 -162Q472 -189 434 -206T349 -233T249 -248T141 -252V-168Q154 -168 181 -166T239 -158T301
-140T350 -106Q372 -83 382 -49T396 25T400 110T399 197Q399 232 400 270T408 346T426 417T459 477Q499 530 556 556T676 596Q644 603 614 612T556 635T504 668T459 713Q438 739 426 772T408 843T401 919T399 993Q399 1036 399 1080T396 1164T382 1239T350 1296Q331
1317 301 1329T240 1348T181 1356T141 1358V1442Q196 1442 249 1438T349 1424T434 1396T498 1352Q532 1316 549 1273T574 1184T582 1087V912Q582 871 586 831T603 755T639 696Q676 661 732 651T877 641V549Z" />
<glyph unicode="~" glyph-name="asciitilde" horiz-adv-x="1706" d="M1530 627Q1471 586 1420 559T1323 514T1233 490T1145 483Q1072 483 1000 504T855 552T707 599T553 621Q475 621 377 579T176 461V594Q286 672 384 705T565 739Q640 739 715 718T864 671T1009
624T1147 602Q1220 602 1313 636T1530 760V627Z" />
</font>
</defs>
</svg>
