<?xml version="1.0" standalone="no"?> <!DOCTYPE svg PUBLIC "-//W3C//DTD SVG 1.0//EN" "http://www.w3.org/TR/2001/REC-SVG-20010904/DTD/svg10.dtd" > <svg xmlns="http://www.w3.org/2000/svg" width="100%" height="100%">
<defs >
<font id="charissilcompact-bi" horiz-adv-x="1156" ><font-face
    font-family="Charis SIL Compact"
    units-per-em="2048"
    panose-1="2 0 8 0 7 0 0 9 0 4"
    ascent="1950"
    descent="-500"
    alphabetic="0" />
<missing-glyph horiz-adv-x="2048" />
<glyph unicode=" " glyph-name="space" horiz-adv-x="600" />
<glyph unicode="!" glyph-name="exclam" horiz-adv-x="778" d="M492 133Q492 99 479 70T442 20T389 -13T324 -25Q291 -25 263 -12T214 25T182 78T170 141Q170 175 182 204T215 256T264 292T326 305Q363 305 393 291T446 254T480 199T492 133ZM694 1262Q642 1103
592 951Q571 886 548 816T502 677T458 544T418 426H307L354 1214Q354 1257 371 1292T416 1353T480 1393T555 1407Q630 1407 662 1372T694 1262Z" />
<glyph unicode="&quot;" glyph-name="quotedbl" horiz-adv-x="770" d="M461 1370Q461 1360 450 1324T422 1238T383 1130T341 1017T305 919T281 854H205L219 1333Q220 1361 233 1384T266 1425T311 1452T362 1462Q407 1462 434 1440T461 1370ZM862 1370Q862 1360
851 1324T823 1238T784 1130T742 1017T706 919T682 854H606L623 1333Q624 1361 636 1384T668 1425T713 1452T764 1462Q809 1462 835 1440T862 1370Z" />
<glyph unicode="#" glyph-name="numbersign" horiz-adv-x="1518" d="M678 848L588 578H842L936 848H678ZM1079 848L991 578H1309V449H946L791 -49L649 -14L801 449H545L385 -49L248 -12L401 449H127V578H442L530 848H227V983H573L731 1454L868 1417L717 983H983L1135
1454L1276 1415L1122 983H1391V848H1079Z" />
<glyph unicode="$" glyph-name="dollar" horiz-adv-x="1225" d="M1133 967H991L995 1182Q997 1194 992 1198T979 1206Q964 1213 940 1219T892 1231T847 1240T817 1243L733 821Q765 812 808 799T896 765T983 715T1055 644T1097 547T1096 420Q1079 332 1033 261T917
137T760 50T571 2L530 -209H410L451 0Q379 3 308 12Q246 20 176 33T43 68L113 422H260L254 201V187Q254 183 255 181T260 178T270 172Q299 155 334 147T402 133Q438 128 475 127L563 578Q527 589 485 604T402 640T325 690T265 760T231 854T236 977Q249 1047 277
1101T342 1196T421 1265T506 1313Q605 1358 721 1368L752 1520H872L842 1368Q905 1368 968 1359T1084 1338Q1144 1325 1200 1309L1133 967ZM821 346Q831 397 820 432T785 490T733 526T680 547L598 133Q650 140 695 165Q714 175 733 191T770 228T800 279T821 346ZM694
1237Q652 1231 615 1210Q583 1191 553 1154T510 1051Q504 1020 505 995T513 949T530 914T552 888Q579 862 618 850L694 1237Z" />
<glyph unicode="%" glyph-name="percent" horiz-adv-x="1843" d="M655 1165Q655 1187 652 1213T640 1260T614 1296T569 1311Q527 1311 494 1283T436 1209T393 1107T364 995T347 890T342 811Q342 786 345 757T358 703T387 662T438 645Q477 645 508 675T564 754T606
862T634 979T650 1087T655 1165ZM1548 584Q1548 605 1545 630T1533 676T1507 712T1462 727Q1420 727 1388 698T1330 624T1288 521T1259 408T1242 303T1237 223Q1237 199 1240 171T1253 119T1281 79T1331 63Q1371 63 1402 93T1458 172T1499 279T1527 397T1543 505T1548
584ZM868 1118Q868 1050 856 982T820 851T758 732T672 637T559 573T420 549Q278 549 208 625T137 840Q137 941 164 1042T248 1225T389 1356T588 1407Q728 1407 798 1333T868 1118ZM463 0H315L1438 1374H1587L463 0ZM1763 535Q1763 467 1751 399T1715 267T1653 149T1565
54T1452 -10T1313 -33Q1172 -33 1103 41T1034 254Q1034 321 1046 389T1082 521T1143 640T1230 735T1343 799T1483 823Q1623 823 1693 749T1763 535Z" />
<glyph unicode="&amp;" glyph-name="ampersand" horiz-adv-x="1526" d="M463 633Q398 582 362 520T326 381Q326 318 347 271T401 191T469 143T537 127Q569 127 596 133T649 151T705 182T770 227L463 633ZM836 1108Q836 1141 832 1172T815 1227T780 1265T723 1280Q705
1280 674 1269T612 1233T558 1167T535 1067Q535 1035 542 1004T562 942T592 884T627 831Q674 853 712 880T778 941T821 1016T836 1108ZM1309 625Q1265 537 1201 444T1059 270Q1096 222 1130 191T1202 142T1286 118T1391 111V4Q1317 1 1276 -2T1206 -6Q1128 -12
1051 0Q1000 11 958 36T870 109Q830 82 785 58T685 16T569 -12T432 -23Q336 -23 261 2T133 73T53 182T25 322Q25 397 52 459T127 575T238 672T375 754Q328 817 297 879T266 1014Q266 1093 300 1163T398 1286T555 1370T764 1401Q851 1401 917 1378T1028 1315T1095
1226T1118 1124Q1118 1052 1088 994T1004 887T874 801T707 731L952 414Q989 462 1018 512T1067 602Q1069 605 1067 613T1063 621L942 641V752H1460V641L1309 625Z" />
<glyph unicode="&apos;" glyph-name="quotesingle" horiz-adv-x="358" d="M461 1370Q461 1354 450 1316T422 1227T383 1120T341 1012T305 918T281 854H205L219 1333Q220 1361 233 1384T266 1425T311 1452T362 1462Q407 1462 434 1440T461 1370Z" />
<glyph unicode="(" glyph-name="parenleft" horiz-adv-x="868" d="M944 1358Q866 1348 802 1308T684 1205T588 1063T513 894T458 710T421 525T400 350T393 199Q393 132 403 68T440 -48T516 -135T641 -180L618 -291Q489 -288 399 -243T253 -121T171 58T145 279Q145
401 166 535T230 800T339 1050T497 1260T705 1408T967 1468L944 1358Z" />
<glyph unicode=")" glyph-name="parenright" horiz-adv-x="868" d="M723 899Q723 778 703 644T639 379T529 129T372 -83T163 -231T-98 -291L-78 -180Q0 -170 65 -130T183 -27T278 116T353 286T409 470T446 656T468 830T475 981Q475 1048 465 1111T428 1226T352
1313T227 1358L250 1468Q378 1464 468 1419T614 1298T697 1120T723 899Z" />
<glyph unicode="*" glyph-name="asterisk" horiz-adv-x="1024" d="M549 733L391 692L385 852L604 1012L631 987L549 733ZM594 1038L328 1036L240 1169L385 1229L604 1067L594 1038ZM893 692L735 733L653 987L680 1012L897 852L893 692ZM657 1092H625L541 1348L641
1470L743 1348L657 1092ZM954 1036L690 1038L678 1069L895 1229L1044 1169L954 1036Z" />
<glyph unicode="+" glyph-name="plus" horiz-adv-x="2048" d="M1087 551V0H961V551H410V678H961V1229H1087V678H1638V551H1087Z" />
<glyph unicode="," glyph-name="comma" horiz-adv-x="657" d="M410 172Q410 112 388 51T326 -68T236 -177T126 -268T7 -331T-113 -360L-94 -260Q-37 -252 13 -230T104 -174T171 -92T207 14H82Q62 33 52 58T41 111Q41 152 58 189T105 255T172 300T252 317Q321 317
365 282T410 172Z" />
<glyph unicode="-" glyph-name="hyphen" horiz-adv-x="713" d="M598 385H61L104 602H641L598 385Z" />
<glyph unicode="." glyph-name="period" horiz-adv-x="651" d="M391 145Q391 110 378 79T341 25T287 -11T221 -25Q186 -25 155 -12T100 25T63 79T49 145Q49 181 62 212T99 266T154 303T221 317Q256 317 287 304T341 267T377 212T391 145Z" />
<glyph unicode="/" glyph-name="slash" horiz-adv-x="1026" d="M160 -190H0L864 1374H1026L160 -190Z" />
<glyph unicode="0" glyph-name="zero" horiz-adv-x="1225" d="M907 979Q907 1065 891 1123T852 1216T803 1267T758 1282Q709 1282 662 1244T572 1139T495 986T434 800T394 598T379 397Q379 326 389 276T414 193T447 139T482 109T512 97T530 94Q576 94 622 132T710
236T788 389T850 575T892 777T907 979ZM1214 942Q1214 826 1194 709T1134 484T1035 281T898 117T722 7T510 -33Q394 -33 311 0T175 94T96 240T70 430Q70 534 88 647T143 868T237 1074T372 1246T552 1363T778 1407Q900 1407 983 1369T1118 1268T1191 1120T1214 942Z"
/>
<glyph unicode="1" glyph-name="one" horiz-adv-x="1225" d="M709 156Q706 143 717 136T748 127L901 113V0H172V115L383 127Q395 127 405 136T418 156L623 1194L305 1151V1266L815 1407H954L709 156Z" />
<glyph unicode="2" glyph-name="two" horiz-adv-x="1225" d="M1182 1096Q1182 1026 1158 958T1090 823T990 694T866 573Q755 476 618 381T342 190H864L934 360H1092L1024 0H-43L-16 145Q207 301 371 424T644 654T806 861T860 1071Q860 1131 843 1170T801 1233T747
1266T694 1276Q672 1276 650 1272T609 1261T573 1248T547 1237L506 1024Q496 1018 486 1009T461 991T424 976T367 969Q331 969 303 979T254 1007T222 1048T211 1098Q211 1168 251 1225T364 1323T537 1385T760 1407Q859 1407 937 1388T1070 1331T1153 1234T1182
1096Z" />
<glyph unicode="3" glyph-name="three" horiz-adv-x="1225" d="M1178 1110Q1178 1059 1157 1006T1092 903T980 810T817 735Q951 709 1022 646T1094 471Q1094 408 1073 347T1013 229T916 125T785 42T622 -13T432 -33Q321 -33 244 -10T117 48T46 124T23 201Q23 216
33 241T63 290T112 331T182 348Q206 348 224 343T256 329T282 313T303 301L336 129Q342 125 355 119T386 107T422 97T457 92Q511 92 567 117T671 189T748 299T778 442Q778 490 766 524T736 581T695 617T652 638T615 647T594 649Q579 649 564 648T528 644T477 637T403
625L426 784Q520 779 599 798T735 856T825 952T858 1083Q858 1144 837 1183T787 1244T733 1274T696 1282Q669 1282 645 1277T602 1263T569 1246T547 1231L514 1036Q503 1031 486 1024T450 1010T410 998T371 993Q348 993 324 1004T279 1034T245 1079T231 1133Q231
1193 273 1243T387 1329T556 1386T764 1407Q872 1407 950 1386T1078 1326T1153 1232T1178 1110Z" />
<glyph unicode="4" glyph-name="four" horiz-adv-x="1225" d="M371 567H692L774 981L371 567ZM1126 408H936L846 -55H567L659 408H43L70 555L903 1407H1135L971 567H1157L1126 408Z" />
<glyph unicode="5" glyph-name="five" horiz-adv-x="1225" d="M1163 1190H567L496 836Q528 842 568 846T657 850Q746 850 824 831T961 772T1053 667T1087 512Q1087 406 1038 308T898 134T683 13T406 -33Q307 -33 234 -18T114 24T43 87T20 166Q20 193 33 220T68
269T122 305T190 319Q205 319 217 315T241 306T264 295T287 287L342 113Q348 111 362 108T393 101T426 95T453 92Q510 92 568 120T675 199T753 316T784 461Q784 539 755 587T681 661T585 697T487 707Q466 707 429 704T351 698T275 690T219 684L362 1374H1198L1163
1190Z" />
<glyph unicode="6" glyph-name="six" horiz-adv-x="1225" d="M846 506Q846 575 831 626T788 712T723 764T643 782Q627 782 605 779T554 765T490 736T414 686Q411 675 404 646T391 578T379 499T373 422Q373 372 376 314T396 206T451 123T557 90Q601 90 651 121T745
208T817 340T846 506ZM1149 557Q1149 481 1130 408T1075 269T986 148T866 52T719 -10T547 -33Q455 -33 370 -10T217 68T110 215T70 444Q70 566 100 685T191 912T339 1115T545 1283T806 1406T1122 1473L1124 1339Q1003 1326 898 1287T709 1188T562 1050T465 881Q521
905 587 919T731 934Q833 934 911 906T1042 828T1122 709T1149 557Z" />
<glyph unicode="7" glyph-name="seven" horiz-adv-x="1225" d="M1307 1276L375 -18L360 -76H66L979 1190H422L356 1008H190L264 1374H1325L1307 1276Z" />
<glyph unicode="8" glyph-name="eight" horiz-adv-x="1225" d="M815 377Q815 419 791 456T725 526T629 588T516 645Q474 620 438 589T377 520T337 439T322 344Q322 293 334 249T374 171T443 118T547 98Q592 98 639 120T726 180T790 269T815 377ZM891 1094Q891
1137 883 1172T857 1233T808 1273T735 1288Q698 1288 657 1269T582 1214T525 1130T502 1020Q502 983 517 953T559 895T626 844T715 797Q795 846 843 920T891 1094ZM1171 1112Q1171 1034 1147 975T1082 871T986 792T870 729Q911 711 955 685T1036 623T1096 540T1120
432Q1120 340 1077 256T955 108T763 6T510 -33Q385 -33 295 -7T146 66T59 174T31 309Q31 357 48 412T104 521T209 628T373 725Q322 753 291 785T242 849T218 914T211 975Q211 1056 245 1133T346 1271T516 1369T754 1407Q867 1407 946 1383T1075 1317T1148 1223T1171
1112Z" />
<glyph unicode="9" glyph-name="nine" horiz-adv-x="1225" d="M924 971Q924 1073 900 1135T844 1231T780 1276T731 1288Q684 1288 633 1256T540 1167T470 1033T442 868Q442 791 465 740T521 657T587 613T641 600Q691 600 732 615T805 649T856 688T885 715Q897
780 910 843T924 971ZM1227 973Q1227 824 1184 696T1066 459T887 260T665 97T414 -32T150 -129L94 -4Q198 36 292 80T472 183T636 319T786 502Q729 482 669 471T549 459Q465 459 390 480T257 547T167 661T133 827Q133 942 177 1047T304 1232T504 1359T766 1407Q814
1407 867 1401T971 1378T1068 1330T1150 1252T1206 1135T1227 973Z" />
<glyph unicode=":" glyph-name="colon" horiz-adv-x="651" d="M391 145Q391 110 378 79T341 25T287 -11T221 -25Q186 -25 155 -12T100 25T63 79T49 145Q49 181 62 212T99 266T154 303T221 317Q256 317 287 304T341 267T377 212T391 145ZM530 848Q530 813 517 782T481
728T427 692T360 678Q325 678 294 691T239 728T202 782T188 848Q188 883 201 914T238 969T293 1006T360 1020Q396 1020 427 1007T481 970T517 915T530 848Z" />
<glyph unicode=";" glyph-name="semicolon" horiz-adv-x="651" d="M410 172Q410 112 388 51T326 -68T236 -177T126 -268T7 -331T-113 -360L-94 -260Q-37 -252 13 -230T104 -174T171 -92T207 14H82Q62 33 52 58T41 111Q41 152 58 189T105 255T172 300T252 317Q321
317 365 282T410 172ZM530 848Q530 813 517 782T481 728T427 692T360 678Q325 678 294 691T239 728T202 782T188 848Q188 883 201 914T238 969T293 1006T360 1020Q396 1020 427 1007T481 970T517 915T530 848Z" />
<glyph unicode="&lt;" glyph-name="less" horiz-adv-x="2048" d="M410 551V678L1638 1149V1022L541 614L1638 207V80L410 551Z" />
<glyph unicode="=" glyph-name="equal" horiz-adv-x="2048" d="M410 365V492H1638V365H410ZM410 737V864H1638V737H410Z" />
<glyph unicode="&gt;" glyph-name="greater" horiz-adv-x="2048" d="M410 80V207L1507 614L410 1022V1149L1638 678V551L410 80Z" />
<glyph unicode="?" glyph-name="question" horiz-adv-x="1096" d="M532 133Q532 99 519 70T482 20T429 -13T365 -25Q331 -25 303 -12T253 25T221 78T209 141Q209 175 221 204T254 256T304 292T367 305Q403 305 433 291T485 254T519 199T532 133ZM1051 1094Q1051
1024 1029 963T967 848T875 751T762 673T638 616T512 580L477 406H338L391 678Q463 693 530 730T650 821T733 942T764 1087Q764 1139 747 1176T699 1236T629 1271T541 1282L420 1047Q418 1045 411 1043T397 1038T383 1034T375 1032Q349 1032 322 1035T272 1050T234
1081T219 1133Q219 1183 240 1222T296 1292T376 1345T470 1380T565 1400T653 1407Q727 1407 798 1390T926 1334T1016 1237T1051 1094Z" />
<glyph unicode="@" glyph-name="at" horiz-adv-x="1917" d="M1798 754Q1798 652 1776 565T1715 405T1625 276T1514 181T1393 122T1270 102Q1223 102 1192 114T1140 145T1109 191T1094 246Q1062 219 1029 194T961 148T889 116T813 104Q743 104 690 129T601 200T547
308T528 444Q528 559 570 660T686 838T857 959T1067 1004Q1091 1004 1115 998T1164 983T1210 962T1253 942L1280 993H1452L1442 955Q1435 925 1425 881T1402 783T1376 674Q1346 545 1309 385Q1301 351 1297 323T1297 275T1314 244T1356 233Q1376 233 1405 248T1466
294T1529 368T1584 470T1624 598T1640 752Q1640 849 1617 927T1555 1067T1463 1172T1349 1246T1224 1289T1096 1303Q988 1303 890 1277T706 1202T550 1083T430 926T353 736T326 518Q326 360 375 228T514 -2T731 -153T1014 -207Q1095 -207 1168 -194T1309 -157T1442
-103T1573 -35L1616 -137Q1547 -173 1473 -206T1319 -265T1151 -306T965 -322Q845 -322 736 -297T533 -222T363 -103T232 56T149 252T119 481Q119 630 155 757T255 987T409 1168T603 1300T827 1380T1069 1407Q1235 1407 1370 1363T1600 1236T1746 1031T1798 754ZM1167
795Q1170 807 1166 825T1150 861T1120 890T1075 903Q1013 903 959 870T863 779T798 639T774 463Q774 405 785 365T816 299T858 262T905 250Q938 250 964 262T1012 294T1052 335T1085 375L1167 795Z" />
<glyph unicode="A" glyph-name="A" horiz-adv-x="1464" d="M784 1032L555 635H852L784 1032ZM801 0V102Q817 104 833 105T864 109Q880 111 895 113Q915 115 926 120T934 143L874 518H487L285 143Q275 128 283 122T311 113Q327 111 345 109Q360 107 379 106T418
102V0H-109V102L10 115L768 1407H1010L1233 145Q1236 125 1243 120T1274 111Q1288 110 1304 108Q1318 106 1334 105T1368 102V0H801Z" />
<glyph unicode="B" glyph-name="B" horiz-adv-x="1329" d="M1262 1106Q1262 1031 1237 973T1169 870T1066 792T938 733Q1005 721 1057 700T1146 647T1202 569T1221 463Q1221 341 1175 253T1045 109T841 27T573 0H-31V102Q-6 104 17 106T58 110Q79 112 98 113Q115
113 124 118T137 145L350 1231Q353 1248 345 1254T317 1262Q299 1263 279 1265Q262 1267 240 1268T195 1272V1374H813Q943 1374 1029 1353T1168 1296T1241 1211T1262 1106ZM911 442Q911 505 889 546T830 611T744 645T641 655Q586 655 528 649L424 115Q446 113 468
113H506Q597 113 671 133T799 195T881 298T911 442ZM948 1092Q948 1141 929 1174T877 1228T802 1257T713 1266Q696 1266 680 1265T649 1264L553 768Q570 766 584 766H604Q680 766 743 790T852 858T923 961T948 1092Z" />
<glyph unicode="C" glyph-name="C" horiz-adv-x="1376" d="M1343 961H1192L1194 1190Q1196 1202 1188 1217T1163 1237Q1155 1241 1133 1249T1084 1264T1027 1276T975 1282Q910 1282 842 1259T711 1192T591 1082T492 933T426 747T401 526Q401 409 435 327T523 193T645
116T778 92Q800 92 826 95T876 103T919 113T948 123Q964 125 972 135T985 156L1083 426H1237L1174 55Q1135 41 1085 26T975 -3T850 -24T711 -33Q596 -33 506 -10T347 55T232 153T155 274T112 409T98 549Q98 654 124 759T202 959T328 1136T499 1278T712 1373T965
1407Q1024 1407 1077 1401T1184 1383T1291 1356T1407 1321L1343 961Z" />
<glyph unicode="D" glyph-name="D" horiz-adv-x="1460" d="M1116 866Q1116 950 1098 1011T1049 1114T976 1183T884 1223T782 1243T676 1251H647L426 127H530Q620 128 698 156T842 233T958 351T1044 501T1097 675T1116 866ZM1423 848Q1423 665 1359 510T1175 241T883
64T494 0H-31V102Q-8 104 14 106T53 109Q73 110 92 111Q117 113 124 118T137 145L350 1231Q353 1249 343 1254T313 1262Q294 1263 275 1265Q258 1267 237 1268T195 1272V1374H727Q886 1374 1014 1345T1234 1253T1374 1089T1423 848Z" />
<glyph unicode="E" glyph-name="E" horiz-adv-x="1229" d="M1210 1051H1047V1225Q1047 1240 1032 1245T999 1251H647L555 776H786Q802 776 820 783T844 807L887 950H1036L942 469H791L811 623Q812 629 808 634T797 643T782 649T766 651H530L428 123H864Q880 123
898 131T922 152L987 356H1149L1077 0H-31V102Q-8 104 14 106T54 110Q74 112 92 113Q115 115 124 120T137 145L350 1231Q355 1249 344 1254T313 1262Q295 1263 276 1265Q259 1267 238 1268T197 1272V1374H1276L1210 1051Z" />
<glyph unicode="F" glyph-name="F" horiz-adv-x="1139" d="M1186 1028H1020V1225Q1020 1240 1005 1245T973 1251H647L551 756H768Q783 756 801 762T825 784L866 932H1018L924 449H770L793 602Q794 616 778 623T745 631H526L430 143Q427 125 438 120T469 113Q488
112 510 110Q529 108 552 106T602 102V0H-31V102Q-10 104 10 106T48 110Q67 112 86 113Q109 115 120 120T137 145L350 1231Q353 1249 342 1254T311 1262Q293 1263 274 1265Q257 1267 236 1268T195 1272V1374H1253L1186 1028Z" />
<glyph unicode="G" glyph-name="G" horiz-adv-x="1495" d="M1329 561Q1315 559 1310 552T1300 530L1206 53Q1163 41 1107 26T987 -2T856 -24T723 -33Q592 -33 495 -5T329 70T215 177T144 303T108 432T98 551Q98 678 132 791T228 999T375 1170T564 1298T784 1379T1024
1407Q1082 1407 1132 1403T1232 1389T1334 1365T1448 1331L1372 958H1198L1217 1190Q1219 1208 1202 1218T1163 1237Q1153 1240 1136 1246T1096 1259T1048 1271T999 1276Q936 1276 868 1253T735 1186T610 1076T507 926T436 740T410 520Q410 437 429 374T480 263T551
184T630 133T705 105T764 96Q784 96 807 99T852 106T894 116T928 125L1008 530Q1011 549 1002 555T969 563Q951 563 932 565Q915 566 895 567T854 571V676H1468V571L1329 561Z" />
<glyph unicode="H" glyph-name="H" horiz-adv-x="1571" d="M1526 1260Q1507 1258 1500 1251T1489 1229L1276 143Q1273 126 1282 121T1311 113Q1329 112 1349 110Q1366 108 1387 106T1432 102V0H811V102L857 106Q880 108 898 110Q919 112 938 113Q957 115 968 121T983
145L1083 657H530L430 143Q427 125 434 120T467 113Q485 112 505 110Q522 108 543 106T588 102V0H-31V102Q-8 104 14 106T54 110Q74 112 92 113Q114 115 124 121T137 145L350 1231Q353 1249 343 1254T311 1262Q293 1263 274 1265Q257 1267 237 1268T195 1272V1374H813V1272Q789
1270 767 1269T726 1265Q705 1263 686 1262Q666 1260 656 1254T643 1229L555 780H1108L1196 1231Q1199 1249 1189 1255T1153 1264Q1135 1265 1116 1266Q1099 1267 1079 1268T1038 1272V1374H1657V1272L1526 1260Z" />
<glyph unicode="I" glyph-name="I" horiz-adv-x="729" d="M674 1262Q658 1260 652 1252T643 1229L430 143Q427 126 434 121T461 113Q480 112 501 110Q519 108 542 106T590 102V0H-31V102Q-8 104 13 105T52 108Q72 110 90 111Q113 113 123 118T137 145L350 1231Q355
1249 344 1254T313 1262Q295 1263 276 1265Q259 1267 238 1268T197 1272V1374H815V1272L674 1262Z" />
<glyph unicode="J" glyph-name="J" horiz-adv-x="1044" d="M985 1260Q971 1260 966 1252T956 1229L825 526Q803 405 771 303T678 126T521 9T272 -33Q204 -33 151 -24T58 -3T-5 20T-41 37L29 393H197V135Q197 127 206 120T230 107T259 98T287 94Q376 94 433 196T528
510L664 1231Q667 1249 657 1254T627 1262Q608 1263 588 1265Q571 1267 549 1268T506 1272V1374H1124V1272L985 1260Z" />
<glyph unicode="K" glyph-name="K" horiz-adv-x="1430" d="M1323 1255L795 752L1079 211Q1097 177 1108 156T1132 123T1159 106T1198 100Q1206 100 1226 101T1268 104T1307 107T1327 109V6Q1271 -11 1210 -22T1092 -33Q1030 -33 987 -24T912 4T857 54T811 127L565
596H518L428 143Q425 123 434 118T461 111Q478 110 496 108Q511 106 529 105T567 102V0H-33V102Q-13 104 9 105T51 108Q74 110 96 111Q112 111 122 118T135 145L350 1231Q355 1249 347 1255T324 1264Q307 1265 289 1266Q273 1267 254 1268T215 1272V1374H795V1272Q774
1270 754 1269T717 1266Q699 1265 682 1264Q667 1262 658 1256T643 1229L555 784H571L1032 1233Q1048 1247 1042 1254T1014 1264Q996 1264 978 1266Q962 1267 943 1268T907 1272V1374H1503V1272L1323 1255Z" />
<glyph unicode="L" glyph-name="L" horiz-adv-x="1147" d="M999 0H-31V102Q-10 104 10 106T48 109L86 111Q115 114 124 119T137 145L350 1231Q355 1248 345 1254T317 1262Q299 1263 279 1265Q262 1267 241 1268T197 1272V1374H815V1272Q789 1270 766 1269T723
1265Q701 1263 682 1262Q668 1260 658 1254T643 1229L426 123H786Q802 123 820 131T844 152L928 414H1081L999 0Z" />
<glyph unicode="M" glyph-name="M" horiz-adv-x="1851" d="M1796 1257Q1782 1255 1777 1249T1767 1229L1556 143Q1553 125 1563 120T1593 113Q1611 112 1631 110Q1648 108 1669 106T1712 102V0H1094V102Q1117 104 1139 106T1179 110Q1200 112 1219 113Q1236 113
1248 120T1264 145L1417 936L885 0H684L518 922L373 143Q368 126 377 121T401 113Q420 112 440 110Q457 108 479 106T526 102V0H-29V102Q-8 104 12 106T49 110Q68 112 86 113Q108 115 121 120T139 145L350 1231Q353 1249 343 1254T313 1262Q294 1263 275 1265Q258
1267 237 1268T195 1272V1374H739V1307L895 446L1376 1298V1374H1935V1272L1796 1257Z" />
<glyph unicode="N" glyph-name="N" horiz-adv-x="1542" d="M1499 1260Q1470 1255 1464 1229L1221 0H993L535 952L377 143Q374 125 383 120T414 113Q432 112 451 110Q468 108 488 106T532 102V0H-29V102Q-7 104 13 106T51 110Q70 112 88 113Q110 115 122 120T139
145L350 1231Q355 1249 344 1254T313 1262Q295 1263 276 1265Q259 1267 239 1268T197 1272V1374H678V1311L1077 477L1227 1231Q1232 1249 1219 1254T1188 1262Q1169 1263 1150 1265Q1133 1267 1112 1268T1071 1272V1374H1632V1272L1499 1260Z" />
<glyph unicode="O" glyph-name="O" horiz-adv-x="1540" d="M1182 854Q1182 957 1156 1037T1087 1172T991 1255T885 1284Q824 1284 766 1253T655 1169T559 1042T484 884T434 707T416 522Q416 416 443 336T514 202T609 121T713 94Q773 94 831 125T942 212T1038 340T1114
498T1164 674T1182 854ZM1501 854Q1501 749 1479 643T1413 438T1301 253T1145 104T944 4T698 -33Q555 -33 444 9T255 128T138 309T98 539Q98 645 122 751T194 953T311 1133T469 1277T668 1372T903 1407Q1051 1407 1163 1362T1350 1240T1463 1063T1501 854Z" />
<glyph unicode="P" glyph-name="P" horiz-adv-x="1245" d="M1255 1040Q1255 920 1209 822T1075 654T865 545T588 506H546Q521 506 500 508L426 143Q423 125 432 120T463 113Q481 112 501 110Q518 108 539 106T584 102V0H-35V102Q-13 104 8 106T46 110Q65 112 84
113Q104 115 116 120T133 145L348 1231Q351 1249 340 1254T309 1262Q291 1263 272 1265Q255 1267 234 1268T193 1272V1374H745Q890 1374 988 1348T1145 1276T1230 1170T1255 1040ZM956 1008Q956 1129 887 1193T682 1257H647L522 631Q582 629 649 641T780 692Q817
714 849 744T905 813T942 900T956 1008Z" />
<glyph unicode="Q" glyph-name="Q" horiz-adv-x="1540" d="M1182 852Q1182 951 1157 1030T1092 1166T1000 1252T895 1282Q833 1282 773 1253T659 1171T560 1046T481 890T429 711T410 520Q410 422 435 343T501 207T597 121T711 90Q770 90 828 121T938 206T1035
334T1112 493T1163 669T1182 852ZM1565 -221Q1551 -228 1510 -245T1414 -281T1296 -314T1176 -328Q1081 -328 1014 -304T898 -239T818 -145T758 -33Q744 -35 728 -36T692 -37Q559 -37 449 2T260 116T138 294T94 530Q94 632 118 737T191 939T308 1122T468 1270T667
1370T905 1407Q1051 1407 1162 1363T1348 1243T1461 1067T1499 852Q1499 798 1493 732T1468 595T1418 449T1337 303T1217 165T1051 45Q1080 -7 1102 -50T1149 -123T1206 -171T1286 -188Q1313 -188 1341 -182T1402 -163T1474 -133T1565 -92V-221Z" />
<glyph unicode="R" glyph-name="R" horiz-adv-x="1399" d="M1346 6Q1299 -14 1254 -23T1153 -33Q1058 -33 997 -11T897 53T836 158T797 301Q790 331 783 364T765 431T740 494T704 547T654 584T586 598Q573 598 555 597T520 596L434 143Q431 126 439 121T467 113Q485
111 506 109Q523 107 546 106T592 102V0H-27V102Q-4 104 17 105T56 108Q76 110 94 111Q113 113 124 119T141 145L350 1231Q355 1248 345 1254T315 1262Q296 1263 277 1265Q260 1267 239 1268T197 1272V1374H788Q891 1374 980 1358T1135 1306T1238 1211T1276 1067Q1276
986 1245 921T1158 803T1028 713T866 649Q925 622 961 590T1019 517T1054 428T1083 322Q1097 268 1110 227T1150 158T1222 116T1346 102V6ZM958 1036Q958 1086 943 1122T905 1182T852 1222T794 1244T740 1254T698 1255L647 1251L547 721H561Q570 721 578 722Q588
722 598 723Q637 724 679 732T761 755T836 794T899 852T942 932T958 1036Z" />
<glyph unicode="S" glyph-name="S" horiz-adv-x="1153" d="M1069 1006H913L922 1219Q922 1224 903 1235T855 1257T793 1277T731 1286Q691 1286 645 1268T560 1216T494 1133T467 1022Q467 968 496 928T569 857T662 803T752 760Q807 732 859 701T952 631T1017 542T1042
424Q1042 377 1029 326T987 223T911 126T796 44T636 -12T426 -33Q342 -33 269 -19T138 15T42 54T-10 82L61 418H236L213 174Q212 168 240 155T307 128T387 104T455 94Q501 94 552 111T645 164T715 253T743 379Q743 429 713 468T639 537T546 592T459 635Q404 663
353 693T261 761T197 846T172 954Q172 1053 211 1136T325 1279T506 1373T748 1407Q817 1407 875 1400T981 1380T1069 1354T1139 1325L1069 1006Z" />
<glyph unicode="T" glyph-name="T" horiz-adv-x="1286" d="M1343 1016H1184L1194 1235Q1195 1248 1180 1255T1149 1262H926L715 143Q712 125 723 120T754 113Q772 112 792 110Q809 108 830 106L872 102V0H254V102Q274 104 293 105T330 108Q349 110 367 111Q388
113 403 119T422 145L633 1262H422Q415 1262 406 1260T389 1254T374 1245T365 1233L287 1016H127L197 1374H1417L1343 1016Z" />
<glyph unicode="U" glyph-name="U" horiz-adv-x="1534" d="M1485 1262Q1471 1260 1463 1252T1452 1229L1294 440Q1273 333 1228 246T1108 97T927 1T680 -33Q566 -33 475 -12T321 54T223 168T188 332Q188 361 194 417T215 543L358 1231Q361 1249 350 1254T317 1262Q300
1263 281 1265Q264 1267 244 1268T203 1272V1374H821V1272Q797 1270 775 1269T734 1265Q713 1263 694 1262Q676 1260 665 1254T651 1229L510 543Q498 484 493 437T487 362Q487 297 508 251T563 176T642 134T733 121Q813 121 871 150T971 232T1039 356T1083 512L1227
1231Q1230 1249 1222 1254T1188 1262Q1169 1263 1150 1265Q1133 1267 1112 1268T1071 1272V1374H1620V1272L1485 1262Z" />
<glyph unicode="V" glyph-name="V" horiz-adv-x="1403" d="M1440 1260L733 -33H498L297 1235Q294 1255 281 1260T250 1266Q237 1266 223 1267Q211 1268 197 1268T170 1270V1374H721V1270Q704 1269 689 1269T659 1268H629Q612 1268 601 1262T592 1237L725 383L1180
1237Q1184 1247 1183 1253T1176 1262T1164 1266T1151 1268H1118Q1103 1268 1085 1268T1049 1270V1374H1552V1272L1440 1260Z" />
<glyph unicode="W" glyph-name="W" horiz-adv-x="1985" d="M2009 1260L1393 -33H1184L1079 907L633 -33H410L305 1235Q303 1255 293 1259T256 1266Q243 1266 228 1267Q215 1268 200 1268T170 1270V1374H729V1270Q711 1269 694 1269T662 1267Q645 1266 631 1266Q618
1266 607 1261T598 1237L657 514L1069 1374H1315L1405 496L1751 1237Q1755 1247 1754 1253T1748 1262T1733 1266T1712 1268H1681Q1667 1268 1651 1268T1620 1270V1374H2134V1272L2009 1260Z" />
<glyph unicode="X" glyph-name="X" horiz-adv-x="1382" d="M1348 1262Q1326 1260 1316 1252T1300 1237L852 735L1120 135Q1128 120 1136 117T1157 111Q1174 110 1192 109Q1208 108 1228 106T1272 102V0H657V102Q677 104 698 105T736 108Q755 110 774 111Q786 112
795 113T811 117T819 125T817 141L659 502L330 141Q322 133 324 123T344 111L473 102V0H-90V102Q-76 104 -61 105T-33 108Q-19 110 -6 111Q7 112 16 112T32 115T45 122T59 135L567 696L322 1239Q314 1256 305 1259T272 1264Q256 1264 239 1266Q225 1267 207 1268T170
1272V1374H788V1272Q763 1270 740 1269T696 1266Q673 1265 653 1264Q639 1264 628 1258T625 1233L764 920L1044 1233Q1052 1241 1054 1250T1036 1262L926 1272V1374H1475V1272L1348 1262Z" />
<glyph unicode="Y" glyph-name="Y" horiz-adv-x="1395" d="M1411 1262Q1400 1260 1390 1252T1374 1237L854 575L768 143Q763 125 773 120T805 113Q823 112 842 110Q859 108 879 106T922 102V0H303V102Q323 104 344 106T382 110Q401 112 420 113Q440 115 453 120T471
145L555 559L326 1239Q321 1256 307 1259T274 1264Q259 1264 241 1266Q226 1267 208 1268T172 1272V1374H788V1272Q765 1270 743 1269T702 1266Q681 1264 662 1264Q645 1264 633 1258T629 1231L770 786L1108 1233Q1114 1241 1110 1251T1083 1264L963 1272V1374H1542V1272L1411
1262Z" />
<glyph unicode="Z" glyph-name="Z" horiz-adv-x="1237" d="M1286 1272L332 127H836Q851 127 869 135T893 158L967 424H1139L1057 0H-43L-23 100L928 1247H502Q486 1247 468 1241T444 1219L379 1001H207L281 1374H1307L1286 1272Z" />
<glyph unicode="[" glyph-name="bracketleft" horiz-adv-x="918" d="M995 1327H682L387 -152H702L678 -270H111L451 1450H1020L995 1327Z" />
<glyph unicode="\" glyph-name="backslash" horiz-adv-x="1012" d="M852 -190L0 1374H160L1012 -190H852Z" />
<glyph unicode="]" glyph-name="bracketright" horiz-adv-x="918" d="M485 -270H-84L-59 -152H256L549 1327H233L258 1450H825L485 -270Z" />
<glyph unicode="^" glyph-name="asciicircum" horiz-adv-x="696" d="M641 1128L504 1323L287 1128H117L414 1479H655L813 1128H641Z" />
<glyph unicode="_" glyph-name="underscore" horiz-adv-x="700" d="M537 -340H-163L-130 -175H570L537 -340Z" />
<glyph unicode="`" glyph-name="grave" horiz-adv-x="868" d="M557 1128L225 1309Q214 1315 205 1325T189 1348T178 1372T174 1395Q174 1413 180 1432T199 1467T235 1493T291 1503Q312 1503 328 1500T358 1490T387 1470T420 1438L700 1128H557Z" />
<glyph unicode="a" glyph-name="a" horiz-adv-x="1163" d="M768 807Q769 811 768 827T762 860T751 891T735 905Q669 905 616 881T520 816T446 721T395 607T364 483T354 362Q354 321 355 280T367 205T402 150T473 129Q506 129 535 144T589 178T632 218T662 248Q669
289 673 311T681 354T690 401T704 475T729 602T768 807ZM1157 61Q1122 47 1084 32T1005 5T925 -16T846 -25Q781 -25 738 -1T674 68Q647 50 616 33T551 4T481 -17T408 -25Q345 -25 295 -8T207 38T143 105T99 184T74 269T66 350Q66 426 82 505T133 660T220 801T343
917T504 995T705 1024Q750 1024 794 1012T874 981L889 999H1108Q1103 984 1095 965T1079 928T1065 896T1057 874L924 199Q924 176 925 160T933 135T950 121T979 117Q983 117 1008 123T1064 137T1122 151T1157 160V61Z" />
<glyph unicode="b" glyph-name="b" horiz-adv-x="1090" d="M741 629Q741 693 731 738T706 813T672 855T635 868Q592 868 540 841T440 774L326 162Q342 136 372 113T451 90Q485 90 519 112T586 173T646 264T696 376T729 501T741 629ZM1026 637Q1026 576 1013 503T970
357T893 215T777 93T617 7T408 -25Q296 -25 204 2T37 78L276 1354L96 1370V1444L442 1509H582L475 958Q531 987 589 1005T702 1024Q784 1024 845 988T946 895T1006 770T1026 637Z" />
<glyph unicode="c" glyph-name="c" horiz-adv-x="985" d="M922 872Q922 854 913 827T882 775T821 733T725 715L612 874Q554 861 512 826T441 744T394 643T365 539T352 449T348 387Q348 340 352 294T370 210T413 150T492 127Q530 127 569 138T653 179T753 261T877
397V193Q835 143 787 103T684 35T565 -9T428 -25Q334 -25 266 3T154 82T89 205T68 365Q68 498 109 617T230 827T424 971T686 1024Q747 1024 791 1010T865 973T908 924T922 872Z" />
<glyph unicode="d" glyph-name="d" horiz-adv-x="1159" d="M770 807Q771 811 764 827T745 861T717 893T682 907Q628 907 570 867T462 755T380 581T348 358Q348 234 378 178T465 121Q491 121 517 134T570 169T623 218T676 276L770 807ZM932 184Q927 159 929 143T937
117T951 104T965 100Q986 100 1012 106T1064 122T1114 142T1155 162V61Q1129 46 1092 31T1013 3T928 -17T844 -25Q766 -25 721 1T659 74Q632 53 601 35T536 4T468 -17T401 -25Q312 -25 249 8T145 94T85 214T66 346Q66 424 83 505T134 661T220 802T341 918T496 995T686
1024Q724 1024 754 1015T805 999L866 1354L682 1370V1444L1028 1509H1167L932 184Z" />
<glyph unicode="e" glyph-name="e" horiz-adv-x="983" d="M682 811Q682 829 680 846T670 878T648 900T610 909Q562 909 525 875T458 789T408 674T373 555Q426 567 481 591T580 648T653 723T682 811ZM948 809Q948 755 924 709T856 625T756 557T633 504T497 469T358
449Q356 430 354 406T352 365Q352 312 360 267T386 189T433 138T506 119Q539 119 573 132T652 175T757 256T901 379V184Q871 155 823 119T714 50T583 -3T438 -25Q371 -25 305 -8T187 52T101 168T68 356Q68 434 87 514T143 668T231 807T348 920T492 996T657 1024Q732
1024 787 999T878 940T931 869T948 809Z" />
<glyph unicode="f" glyph-name="f" horiz-adv-x="741" d="M987 1372Q987 1349 980 1327T954 1285T900 1251T811 1229L684 1350Q642 1313 617 1258T576 1145T554 1032T541 940H791V819H520Q516 790 508 733T490 602T467 446T442 288T419 149T399 49Q386 -5 362
-64T304 -181T228 -291T135 -382T26 -445T-96 -469Q-140 -469 -172 -454T-225 -416T-256 -369T-266 -326Q-266 -285 -240 -244T-172 -174L12 -291Q36 -257 56 -212T92 -112T123 4T150 131Q176 273 196 445T246 813L90 797L94 893L270 954Q280 1005 297 1065T341
1188T405 1307T493 1410T609 1482T758 1509Q815 1509 857 1495T929 1461T972 1416T987 1372Z" />
<glyph unicode="g" glyph-name="g" horiz-adv-x="995" d="M666 -170Q666 -135 644 -104T565 -47L336 53Q302 40 279 21T242 -21T221 -72T215 -127Q215 -160 225 -199T259 -273T325 -331T430 -354Q500 -354 545 -334T618 -286T655 -226T666 -170ZM643 737Q643 773
642 806T634 864T610 903T565 918Q548 918 518 894T457 826T405 721T383 584Q383 548 385 519T395 468T418 434T459 422Q510 422 545 453T601 532T633 635T643 737ZM903 854Q912 831 919 798T926 727Q926 651 897 579T810 451T667 361T471 326Q460 297 455 268T453
221L725 98Q774 77 814 56T882 8T926 -51T942 -129Q942 -194 897 -255T775 -363T596 -440T377 -469Q255 -469 172 -442T36 -371T-40 -272T-63 -162Q-63 -110 -42 -66T16 14T103 77T211 125Q207 149 211 179T226 241T253 302T289 352Q248 371 214 395T154 451T114
521T100 608Q100 656 112 705T149 801T211 887T300 958T417 1006T561 1024Q600 1024 635 1019T701 1005T754 988T793 973H1092V854H903Z" />
<glyph unicode="h" glyph-name="h" horiz-adv-x="1157" d="M1153 57Q1076 20 998 -2T838 -25Q802 -25 765 -18T698 7T654 51T647 119L770 715Q778 752 774 780T758 828T731 858T700 868Q677 868 648 857T587 825T522 777T457 717L307 0H35L317 1354L137 1370V1444L483
1509H625L502 930Q564 968 643 996T813 1024Q890 1024 941 1003T1020 944T1055 853T1049 735L934 193Q929 167 932 150T944 122T962 107T981 102Q1026 102 1065 118T1151 160L1153 57Z" />
<glyph unicode="i" glyph-name="i" horiz-adv-x="635" d="M631 66Q539 16 456 -4T285 -25Q229 -25 191 -6T130 43T101 110T102 186L231 866L55 885V956L393 1024H537L379 203Q375 185 374 168T376 138T390 117T418 109Q426 109 449 114T504 128T568 150T631 178V66ZM604
1358Q604 1325 592 1296T557 1245T506 1211T444 1198Q411 1198 383 1210T333 1245T299 1296T287 1358Q287 1391 299 1420T332 1470T382 1503T444 1516Q477 1516 506 1504T557 1470T591 1420T604 1358Z" />
<glyph unicode="j" glyph-name="j" horiz-adv-x="651" d="M418 172Q409 120 388 53T334 -86T258 -226T162 -349T47 -436T-86 -469Q-122 -469 -154 -460T-211 -435T-249 -398T-264 -350Q-264 -331 -258 -316T-240 -287T-213 -263T-180 -240L14 -291Q28 -269 42
-237T70 -168T95 -90T113 -12L264 864L88 883V956L428 1024H563L418 172ZM637 1358Q637 1325 624 1296T589 1245T538 1211T475 1198Q442 1198 413 1210T363 1245T330 1296T317 1358Q317 1391 329 1420T363 1470T413 1503T475 1516Q508 1516 537 1504T589 1470T624
1420T637 1358Z" />
<glyph unicode="k" glyph-name="k" horiz-adv-x="1126" d="M1102 53Q1076 40 1040 26T964 1T883 -17T807 -25Q779 -25 750 -15T694 11T645 47T608 88Q591 114 568 160T519 258T470 364T426 459L383 420L297 0H25L299 1354L119 1370V1444L465 1509H604L432 668L662
903Q725 969 781 996T897 1024Q934 1024 966 1014T1021 986T1058 947T1071 905Q1071 887 1067 861T1045 808T994 754T901 707L819 840Q795 819 767 793T712 740T659 689T614 647Q628 621 644 581T679 495T718 401T762 311Q784 271 804 234T844 168T886 122T934
104Q936 104 975 115T1102 162V53Z" />
<glyph unicode="l" glyph-name="l" horiz-adv-x="627" d="M623 59Q548 21 462 -2T295 -25Q193 -25 137 17T80 131Q80 148 81 166T88 205L311 1354L131 1370V1444L477 1509H612L360 209Q357 191 357 174T364 142T382 118T414 109Q438 109 494 123T623 170V59Z" />
<glyph unicode="m" glyph-name="m" horiz-adv-x="1692" d="M1686 59Q1608 19 1536 -3T1384 -25Q1337 -25 1297 -16T1227 13T1184 61T1178 127L1290 672Q1331 864 1251 864Q1206 864 1167 845T1097 798T1044 743T1012 698L864 0H594L735 674Q741 704 746 737T750
799T733 845T686 864Q654 864 621 847T558 803T502 748T455 694L309 0H37L217 870L45 887V956L383 1024H524L500 907Q574 958 652 991T801 1024Q843 1024 876 1012T936 981T980 936T1010 885Q1050 915 1095 940T1186 984T1277 1013T1362 1024Q1416 1024 1462 1005T1539
951T1582 867T1581 756L1464 205Q1455 161 1466 132T1516 102Q1526 102 1546 106T1590 117T1639 133T1686 154V59Z" />
<glyph unicode="n" glyph-name="n" horiz-adv-x="1184" d="M1176 47Q1149 34 1109 21T1025 -2T936 -18T856 -25Q822 -25 783 -20T711 -1T660 38T649 104L774 729Q782 766 782 791T774 833T754 855T725 862Q701 862 670 848T605 811T535 758T467 694L322 0H49L229
870L57 887V956L393 1024H535L510 905Q547 930 588 952T672 990T757 1015T840 1024Q916 1024 965 1007T1040 955T1070 871T1063 756L952 180Q947 155 951 140T964 115T983 103T1001 100Q1033 100 1079 112T1171 145L1176 47Z" />
<glyph unicode="o" glyph-name="o" horiz-adv-x="1133" d="M774 629Q774 704 759 758T723 847T677 898T633 915Q602 915 570 895T507 838T449 751T402 641T370 515T358 379Q358 300 373 245T411 155T458 104T500 88Q554 88 603 137T691 264T751 438T774 629ZM1069
621Q1069 540 1051 461T998 311T912 178T795 71T649 1T475 -25Q370 -25 293 5T166 87T91 212T66 371Q66 451 83 530T134 683T218 818T333 926T479 998T655 1024Q749 1024 825 999T956 923T1039 797T1069 621Z" />
<glyph unicode="p" glyph-name="p" horiz-adv-x="1108" d="M756 629Q756 672 752 716T735 797T698 857T633 881Q611 881 586 869T535 840T487 803T449 770L324 139Q336 131 352 122T385 104T418 90T449 84Q492 84 531 107T605 172T667 266T714 381T745 505T756
629ZM1042 637Q1042 555 1022 474T965 320T872 183T747 74T592 2T410 -25Q372 -25 344 -20T295 -8L233 -311Q230 -325 238 -334T264 -344Q278 -345 299 -347Q317 -349 343 -351T406 -356V-449H-197V-356Q-181 -354 -160 -353T-119 -350Q-97 -348 -74 -346Q-58 -344
-50 -335T-39 -311L193 868L23 887V956L360 1024H498L483 948Q499 957 524 970T582 995T651 1015T729 1024Q810 1024 869 990T966 900T1023 776T1042 637Z" />
<glyph unicode="q" glyph-name="q" horiz-adv-x="1167" d="M784 799Q787 809 781 828T765 865T743 897T719 911Q654 911 588 871T469 758T383 583T350 358Q350 303 356 258T376 182T414 133T477 115Q508 115 534 127T584 157T629 196T672 236L784 799ZM836 -311Q832
-325 836 -334T858 -344Q875 -345 897 -347Q916 -349 943 -351T1006 -356V-449H403V-356Q417 -355 438 -353T479 -349Q503 -346 528 -344Q557 -341 563 -311L635 45Q573 10 512 -9T395 -29Q313 -29 252 -3T151 72T90 191T70 350Q70 427 88 506T142 661T230 802T352
917T507 995T692 1024Q743 1024 789 1014T870 987L903 1024H1102L836 -311Z" />
<glyph unicode="r" glyph-name="r" horiz-adv-x="858" d="M934 879Q934 808 889 773T739 737L684 848Q636 824 593 791T515 717T457 632T424 541L309 0H37L217 866L45 885V956L385 1024H526L500 887Q527 915 559 940T628 984T702 1013T778 1024Q818 1024 847 1010T896
974T924 927T934 879Z" />
<glyph unicode="s" glyph-name="s" horiz-adv-x="850" d="M807 866Q807 797 768 764T635 725L530 903Q523 905 515 907Q508 909 498 910T477 911Q446 911 429 899T404 867T393 826T391 784Q391 752 407 722T449 664T507 608T573 555Q608 528 640 500T698 440T739
374T754 303Q754 244 726 185T641 80T498 4T297 -25Q216 -25 158 -9T61 35T5 98T-14 170Q-14 197 -4 222T22 266T59 297T100 309Q145 309 176 296T227 260L190 139Q201 124 221 112T264 92T312 80T358 76Q420 76 450 118T481 233Q481 264 469 291T435 345T382 396T313
451Q281 475 251 504T196 565T158 634T143 709Q143 781 177 839T268 938T400 1002T557 1024Q621 1024 668 1007T746 965T792 913T807 866Z" />
<glyph unicode="t" glyph-name="t" horiz-adv-x="705" d="M500 856L371 223Q360 175 381 146T451 117Q475 117 508 125T578 144T648 167T707 188V76Q690 68 647 52T549 18T435 -12T328 -25Q269 -25 225 -11T152 27T109 86T94 160Q94 180 95 200T102 242L227 852L80
836V920L254 989L358 1200H563L520 969H805V856H500Z" />
<glyph unicode="u" glyph-name="u" horiz-adv-x="1176" d="M1171 57Q1150 46 1114 32T1033 5T940 -16T848 -25Q795 -25 762 -14T711 12T684 44T674 72Q606 25 527 0T348 -25Q272 -25 220 1T137 66T97 151T96 240L229 868L57 887V956L395 1024H537L369 240Q364
216 366 194T378 156T402 129T436 119Q470 119 502 128T565 155T625 194T682 242L842 999H1114L946 205Q934 148 950 123T999 98Q1007 98 1017 100T1046 110T1094 132T1171 172V57Z" />
<glyph unicode="v" glyph-name="v" horiz-adv-x="1042" d="M1053 893Q1053 867 1048 843T1036 799T1021 764T1008 739Q939 613 860 499T704 286T557 109T438 -25H238Q264 28 275 67T285 141Q285 144 283 171T278 242T269 340T258 455T245 574T231 685T215 777T199
838Q194 849 191 856T182 866T169 871T147 872Q126 873 103 875Q83 876 58 877T6 879V952L250 1024Q356 1022 413 985T479 870L535 342Q572 393 607 438T674 528T731 618T778 711L721 971Q747 996 791 1010T883 1024Q919 1024 950 1015T1004 989T1040 947T1053
893Z" />
<glyph unicode="w" glyph-name="w" horiz-adv-x="1538" d="M1546 895Q1546 852 1524 793T1466 664T1382 521T1285 373T1185 234T1094 113T1024 23T985 -25H782L741 561Q701 482 658 402T572 245T487 100T408 -25H197L219 31L164 868L8 885V950L283 1024L430 999L469
381Q504 449 540 523T611 672T681 824T748 975L981 999L1030 279Q1065 330 1105 388T1185 507T1260 629T1321 745L1243 963Q1247 969 1257 979T1284 999T1324 1016T1380 1024Q1422 1024 1453 1009T1504 973T1535 930T1546 895Z" />
<glyph unicode="x" glyph-name="x" horiz-adv-x="1180" d="M1200 895Q1200 875 1197 848T1181 797T1138 756T1057 739L967 846Q942 828 909 797T842 725T775 633T719 524Q724 506 735 474T759 403T788 326T817 256Q831 225 841 198T863 149T887 116T918 104Q926
104 939 105T972 112T1017 130T1077 166V47Q1042 26 1008 13T939 -9T866 -21T782 -25Q732 -25 690 8T614 93T555 204T514 317Q506 304 489 274T447 206T389 127T319 53T239 -3T152 -25Q116 -25 82 -17T22 6T-21 45T-37 98Q-37 122 -31 150T-7 202T47 242T139 258L217
137Q244 160 276 194T341 271T404 367T459 479Q454 499 444 534T419 611T390 695T359 773T332 830T311 854L109 879V942Q121 947 145 955T200 972T262 990T322 1006T371 1019T399 1024Q447 1024 484 1001T552 936T608 833T655 698Q691 752 734 809T825 915T926
993T1032 1024Q1063 1024 1093 1015T1147 988T1185 947T1200 895Z" />
<glyph unicode="y" glyph-name="y" horiz-adv-x="1112" d="M1065 844Q1053 832 1030 801T983 730T935 648T897 575Q875 526 845 457T777 307T696 141T604 -29Q553 -118 495 -198T368 -338T221 -433T49 -469Q-13 -469 -54 -453T-121 -413T-156 -362T-166 -313Q-166
-288 -158 -259T-131 -205T-80 -162T0 -143L88 -299Q227 -269 397 43Q395 55 387 96T368 196T342 326T311 471Q296 541 283 612T259 740T239 832T223 868L6 885V948Q18 952 41 959T93 975T153 992T212 1008T263 1019T297 1024Q331 1024 359 1020T412 996T458 936T502
823Q512 788 524 741T548 639T573 525T598 406L879 1024H977L1171 963V909L1065 844Z" />
<glyph unicode="z" glyph-name="z" horiz-adv-x="1006" d="M344 188L473 215Q528 186 564 168T635 150Q646 150 665 155T704 168T742 186T766 209L643 340Q648 347 664 360T702 386T749 408T801 418Q834 418 858 402T897 363T920 314T928 266Q928 217 900 166T822
72T709 4T573 -23Q521 -23 475 -10T391 20T329 49T293 63Q279 63 268 62T250 51L174 -80L-33 33L643 811L514 784Q460 813 425 831T354 850Q343 850 324 845T285 832T248 813T223 791L344 662Q339 653 324 640T287 614T239 592T188 582Q155 582 131 598T92 637T69
686T61 733Q61 782 89 833T167 927T280 997T416 1024Q468 1024 514 1010T598 980T660 950T696 936Q710 936 720 938T739 948L795 1077L1020 963L344 188Z" />
<glyph unicode="{" glyph-name="braceleft" horiz-adv-x="1014" d="M1022 1333Q984 1333 947 1328Q915 1323 880 1312T815 1278Q779 1248 759 1204T727 1107T704 997T677 885T632 778T553 688Q514 657 476 639T405 612T349 600Q332 598 323 598Q332 597 348 595Q370
592 398 583T458 555T516 506Q550 466 558 416T563 310T545 198T525 89T519 -7T547 -82Q566 -105 597 -116T657 -132Q691 -137 729 -137L707 -250H667Q640 -250 604 -249T527 -243T446 -229T374 -204T319 -166Q281 -125 271 -69T266 48T286 173T311 295T322 401T297
479Q273 509 237 521T166 538Q126 542 84 537L106 659Q148 653 189 657Q224 660 265 672T342 715Q378 745 397 793T429 900T453 1022T484 1147T535 1265T623 1362Q653 1385 692 1400T774 1424T860 1438T939 1444T1003 1446H1042L1022 1333Z" />
<glyph unicode="|" glyph-name="bar" horiz-adv-x="815" d="M320 -528V1630H495V-528H320Z" />
<glyph unicode="}" glyph-name="braceright" horiz-adv-x="1014" d="M930 537Q888 542 847 538Q811 534 770 522T692 479Q656 448 637 400T606 294T582 173T552 48T502 -69T416 -166Q386 -189 346 -204T263 -228T177 -242T98 -248T33 -250H-6L16 -137Q53 -137
90 -132Q122 -127 157 -116T221 -82Q257 -52 277 -8T309 88T331 196T358 308T403 415T481 506Q518 536 556 554T626 581T683 594T717 598Q710 598 688 600T637 611T577 638T518 688Q484 728 476 779T472 885T489 998T510 1107T516 1204T489 1278Q470 1301 440 1312T380
1328Q346 1333 307 1333L330 1446H369Q397 1446 433 1445T510 1439T590 1425T663 1400T719 1362Q757 1320 766 1265T770 1148T750 1022T725 900T714 794T739 715Q763 685 799 673T869 657Q909 653 952 659L930 537Z" />
<glyph unicode="~" glyph-name="asciitilde" horiz-adv-x="1706" d="M1530 614Q1468 570 1415 540T1314 492T1222 467T1135 459Q1060 459 990 480T850 527T709 574T563 596Q492 596 398 553T176 412V606Q292 694 392 729T575 764Q633 764 688 752T796 721T903
683T1010 647Q1042 638 1074 633T1137 627Q1170 627 1208 635T1293 663T1399 719T1530 809V614Z" />
</font>
</defs>
</svg>
